<mxfile host="app.diagrams.net" modified="2024-07-18T00:31:25.192Z" agent="Mozilla/5.0 (Macintosh; Intel Mac OS X 10_15_7) AppleWebKit/605.1.15 (KHTML, like Gecko) Version/17.5 Safari/605.1.15" etag="2BzObW2WkXQNiDnZFq2s" version="24.7.1" type="github">
  <diagram name="Page-1" id="OZU3ZvA2aPoWL_jV6k-2">
    <mxGraphModel dx="4654" dy="3613" grid="1" gridSize="10" guides="1" tooltips="1" connect="1" arrows="1" fold="1" page="1" pageScale="1" pageWidth="827" pageHeight="1169" math="0" shadow="0">
      <root>
        <mxCell id="0" />
        <mxCell id="1" parent="0" />
        <mxCell id="ZmS5W_vSXkEM8_8rMccr-10" style="edgeStyle=orthogonalEdgeStyle;rounded=0;orthogonalLoop=1;jettySize=auto;html=1;exitX=1;exitY=0.5;exitDx=0;exitDy=0;entryX=0;entryY=0.5;entryDx=0;entryDy=0;endArrow=none;endFill=0;" parent="1" source="ZmS5W_vSXkEM8_8rMccr-6" edge="1">
          <mxGeometry relative="1" as="geometry">
            <mxPoint x="360" y="125" as="targetPoint" />
            <Array as="points">
              <mxPoint x="320" y="125" />
              <mxPoint x="360" y="126" />
            </Array>
          </mxGeometry>
        </mxCell>
        <mxCell id="ZmS5W_vSXkEM8_8rMccr-34" style="edgeStyle=orthogonalEdgeStyle;rounded=0;orthogonalLoop=1;jettySize=auto;html=1;exitX=1;exitY=0.5;exitDx=0;exitDy=0;entryX=0.5;entryY=0;entryDx=0;entryDy=0;" parent="1" source="ZmS5W_vSXkEM8_8rMccr-6" target="ZmS5W_vSXkEM8_8rMccr-26" edge="1">
          <mxGeometry relative="1" as="geometry">
            <mxPoint x="200" y="260" as="targetPoint" />
            <Array as="points">
              <mxPoint x="320" y="125" />
              <mxPoint x="320" y="260" />
              <mxPoint x="-85" y="260" />
            </Array>
          </mxGeometry>
        </mxCell>
        <mxCell id="ZmS5W_vSXkEM8_8rMccr-35" style="edgeStyle=orthogonalEdgeStyle;rounded=0;orthogonalLoop=1;jettySize=auto;html=1;exitX=1;exitY=0.5;exitDx=0;exitDy=0;entryX=0.5;entryY=0;entryDx=0;entryDy=0;" parent="1" source="ZmS5W_vSXkEM8_8rMccr-6" target="ZmS5W_vSXkEM8_8rMccr-36" edge="1">
          <mxGeometry relative="1" as="geometry">
            <mxPoint x="890" y="290" as="targetPoint" />
            <Array as="points">
              <mxPoint x="320" y="125" />
              <mxPoint x="320" y="260" />
              <mxPoint x="875" y="260" />
            </Array>
          </mxGeometry>
        </mxCell>
        <mxCell id="ZmS5W_vSXkEM8_8rMccr-6" value="&lt;h1 style=&quot;margin: 0px 0px 0.7em; padding: 0px; border: 0px; font-stretch: inherit; line-height: 100%; font-size-adjust: inherit; font-kerning: inherit; font-variant-alternates: inherit; font-variant-ligatures: inherit; font-variant-numeric: inherit; font-variant-east-asian: inherit; font-variant-position: inherit; font-feature-settings: inherit; font-optical-sizing: inherit; font-variation-settings: inherit; overflow-wrap: break-word; font-size: 16px;&quot;&gt;&lt;font style=&quot;font-size: 16px;&quot; color=&quot;#1a1a1a&quot; face=&quot;Helvetica&quot;&gt;&lt;span style=&quot;margin: 0px; padding: 0px; border: 0px; font-style: inherit; font-variant-caps: inherit; font-stretch: inherit; line-height: inherit; font-size-adjust: inherit; font-kerning: inherit; font-variant-alternates: inherit; font-variant-ligatures: inherit; font-variant-numeric: inherit; font-variant-east-asian: inherit; font-variant-position: inherit; font-feature-settings: inherit; font-optical-sizing: inherit; font-variation-settings: inherit; overflow-wrap: break-word;&quot;&gt;&lt;font style=&quot;font-size: 16px;&quot;&gt;Albert Edward Burcher&lt;/font&gt;&lt;/span&gt;&amp;nbsp;&lt;/font&gt;&lt;/h1&gt;&lt;h1 style=&quot;margin: 0px 0px 0.7em; padding: 0px; border: 0px; font-stretch: inherit; line-height: 100%; font-size-adjust: inherit; font-kerning: inherit; font-variant-alternates: inherit; font-variant-ligatures: inherit; font-variant-numeric: inherit; font-variant-east-asian: inherit; font-variant-position: inherit; font-feature-settings: inherit; font-optical-sizing: inherit; font-variation-settings: inherit; overflow-wrap: break-word; font-size: 16px;&quot;&gt;&lt;span style=&quot;font-weight: normal;&quot;&gt;&lt;font face=&quot;Helvetica&quot; style=&quot;font-size: 16px;&quot; color=&quot;#1a1a1a&quot;&gt;1845 - 1924&lt;/font&gt;&lt;/span&gt;&lt;/h1&gt;&lt;div style=&quot;font-size: 16px;&quot;&gt;&lt;span style=&quot;background-color: rgb(255, 255, 255);&quot;&gt;&lt;font style=&quot;font-size: 16px;&quot; color=&quot;#1a1a1a&quot; face=&quot;Helvetica&quot;&gt;Married 9 May 1871 in Wallasey, Cheshire, England&lt;/font&gt;&lt;/span&gt;&lt;span style=&quot;font-size: 23px; font-family: qMxfg6gYd-HVo0lsF2Li; font-weight: normal;&quot;&gt;&lt;font style=&quot;font-size: 16px;&quot;&gt;&lt;br&gt;&lt;/font&gt;&lt;/span&gt;&lt;/div&gt;" style="whiteSpace=wrap;html=1;aspect=fixed;" parent="1" vertex="1">
          <mxGeometry x="110" y="40" width="170" height="170" as="geometry" />
        </mxCell>
        <mxCell id="ZmS5W_vSXkEM8_8rMccr-12" style="edgeStyle=orthogonalEdgeStyle;rounded=0;orthogonalLoop=1;jettySize=auto;html=1;exitX=0;exitY=0.5;exitDx=0;exitDy=0;entryX=0.5;entryY=0;entryDx=0;entryDy=0;" parent="1" target="ZmS5W_vSXkEM8_8rMccr-13" edge="1">
          <mxGeometry relative="1" as="geometry">
            <mxPoint x="-100" y="270" as="targetPoint" />
            <mxPoint x="360" y="125" as="sourcePoint" />
            <Array as="points">
              <mxPoint x="321" y="126" />
              <mxPoint x="321" y="260" />
              <mxPoint x="-725" y="260" />
            </Array>
          </mxGeometry>
        </mxCell>
        <mxCell id="ZmS5W_vSXkEM8_8rMccr-22" style="edgeStyle=orthogonalEdgeStyle;rounded=0;orthogonalLoop=1;jettySize=auto;html=1;exitX=1;exitY=0.5;exitDx=0;exitDy=0;entryX=0;entryY=0.5;entryDx=0;entryDy=0;endArrow=none;endFill=0;" parent="1" source="ZmS5W_vSXkEM8_8rMccr-13" target="ZmS5W_vSXkEM8_8rMccr-18" edge="1">
          <mxGeometry relative="1" as="geometry">
            <Array as="points">
              <mxPoint x="-557" y="365" />
            </Array>
          </mxGeometry>
        </mxCell>
        <mxCell id="ZmS5W_vSXkEM8_8rMccr-13" value="&lt;h1 style=&quot;margin: 0px 0px 0.7em; padding: 0px; border: 0px; font-stretch: inherit; line-height: 100%; font-size-adjust: inherit; font-kerning: inherit; font-variant-alternates: inherit; font-variant-ligatures: inherit; font-variant-numeric: inherit; font-variant-east-asian: inherit; font-variant-position: inherit; font-feature-settings: inherit; font-optical-sizing: inherit; font-variation-settings: inherit; overflow-wrap: break-word; color: rgb(57, 58, 60); font-size: 16px;&quot;&gt;&lt;span style=&quot;margin: 0px; padding: 0px; border: 0px; font-style: inherit; font-variant-caps: inherit; font-stretch: inherit; line-height: inherit; font-size-adjust: inherit; font-kerning: inherit; font-variant-alternates: inherit; font-variant-ligatures: inherit; font-variant-numeric: inherit; font-variant-east-asian: inherit; font-variant-position: inherit; font-feature-settings: inherit; font-optical-sizing: inherit; font-variation-settings: inherit; overflow-wrap: break-word;&quot;&gt;&lt;font face=&quot;Helvetica&quot; style=&quot;font-size: 16px;&quot;&gt;Albert Victor Kerry Burcher&amp;nbsp;&lt;/font&gt;&lt;/span&gt;&lt;/h1&gt;&lt;h1 style=&quot;margin: 0px 0px 0.7em; padding: 0px; border: 0px; font-stretch: inherit; line-height: 100%; font-size-adjust: inherit; font-kerning: inherit; font-variant-alternates: inherit; font-variant-ligatures: inherit; font-variant-numeric: inherit; font-variant-east-asian: inherit; font-variant-position: inherit; font-feature-settings: inherit; font-optical-sizing: inherit; font-variation-settings: inherit; overflow-wrap: break-word; color: rgb(57, 58, 60); font-size: 16px;&quot;&gt;&lt;font face=&quot;jN4gn-6lTFqfSW2iRNwo&quot; style=&quot;font-size: 16px;&quot;&gt;1876 - 1953&lt;/font&gt;&lt;/h1&gt;&lt;div style=&quot;font-size: 16px; line-height: 100%;&quot;&gt;&lt;font style=&quot;font-size: 16px;&quot;&gt;&lt;span style=&quot;background-color: rgb(255, 255, 255);&quot;&gt;&lt;font face=&quot;jN4gn-6lTFqfSW2iRNwo&quot; style=&quot;font-size: 16px;&quot;&gt;Married Apr 1909 in St Aidans Church, Remuera, Auckland&lt;/font&gt;&lt;/span&gt;&lt;br&gt;&lt;/font&gt;&lt;/div&gt;&lt;div style=&quot;font-size: 25.7148px; line-height: 100%;&quot;&gt;&lt;br&gt;&lt;/div&gt;" style="whiteSpace=wrap;html=1;aspect=fixed;" parent="1" vertex="1">
          <mxGeometry x="-810" y="280" width="170" height="170" as="geometry" />
        </mxCell>
        <mxCell id="ZmS5W_vSXkEM8_8rMccr-31" style="edgeStyle=orthogonalEdgeStyle;rounded=0;orthogonalLoop=1;jettySize=auto;html=1;exitX=0;exitY=0.5;exitDx=0;exitDy=0;entryX=0.5;entryY=0;entryDx=0;entryDy=0;" parent="1" source="ZmS5W_vSXkEM8_8rMccr-17" target="ZmS5W_vSXkEM8_8rMccr-30" edge="1">
          <mxGeometry relative="1" as="geometry">
            <Array as="points">
              <mxPoint x="320" y="125" />
              <mxPoint x="320" y="260" />
              <mxPoint x="395" y="260" />
            </Array>
          </mxGeometry>
        </mxCell>
        <mxCell id="ZmS5W_vSXkEM8_8rMccr-17" value="&lt;h1 style=&quot;caret-color: rgb(0, 0, 0); color: rgb(0, 0, 0); font-family: Helvetica; font-style: normal; font-variant-caps: normal; letter-spacing: normal; orphans: auto; text-align: center; text-indent: 0px; text-transform: none; white-space: normal; widows: auto; word-spacing: 0px; -webkit-text-stroke-width: 0px; text-decoration: none; margin: 0px 0px 0.7em; padding: 0px; border: 0px; font-stretch: inherit; line-height: 16px; font-size-adjust: inherit; font-kerning: inherit; font-variant-alternates: inherit; font-variant-ligatures: inherit; font-variant-numeric: inherit; font-variant-east-asian: inherit; font-variant-position: inherit; font-feature-settings: inherit; font-optical-sizing: inherit; font-variation-settings: inherit; overflow-wrap: break-word; font-size: 16px;&quot;&gt;&lt;span style=&quot;font-family: inherit; font-size: inherit; font-style: inherit; font-variant-caps: inherit; font-weight: inherit; color: rgb(57, 58, 60); text-align: start;&quot;&gt;Catherine Wright (Kerry)&lt;/span&gt;&lt;font style=&quot;font-size: 16px;&quot; color=&quot;#1a1a1a&quot; face=&quot;Helvetica&quot;&gt;&lt;span style=&quot;margin: 0px; padding: 0px; border: 0px; font-style: inherit; font-variant-caps: inherit; font-stretch: inherit; line-height: inherit; font-size-adjust: inherit; font-kerning: inherit; font-variant-alternates: inherit; font-variant-ligatures: inherit; font-variant-numeric: inherit; font-variant-east-asian: inherit; font-variant-position: inherit; font-feature-settings: inherit; font-optical-sizing: inherit; font-variation-settings: inherit; overflow-wrap: break-word;&quot;&gt;&lt;font style=&quot;font-size: 16px;&quot;&gt;&amp;nbsp;Burcher&lt;/font&gt;&lt;/span&gt;&amp;nbsp;&lt;/font&gt;&lt;/h1&gt;&lt;h1 style=&quot;font-style: normal; font-variant-caps: normal; letter-spacing: normal; orphans: auto; text-align: center; text-indent: 0px; text-transform: none; white-space: normal; widows: auto; word-spacing: 0px; -webkit-text-stroke-width: 0px; text-decoration: none; margin: 0px 0px 0.7em; padding: 0px; border: 0px; font-stretch: inherit; line-height: 1.4em; font-family: &amp;quot;Open Sans&amp;quot;, Helvetica, Arial, sans-serif; font-size-adjust: inherit; font-kerning: inherit; font-variant-alternates: inherit; font-variant-ligatures: inherit; font-variant-numeric: inherit; font-variant-east-asian: inherit; font-variant-position: inherit; font-feature-settings: inherit; font-optical-sizing: inherit; font-variation-settings: inherit; overflow-wrap: break-word; color: rgb(57, 58, 60); font-size: 16px;&quot;&gt;&lt;span&gt;&amp;nbsp;&lt;span class=&quot;Apple-converted-space&quot;&gt;&amp;nbsp;&lt;/span&gt;&lt;/span&gt;&lt;font style=&quot;font-size: 16px; font-weight: normal;&quot;&gt;1849 - 1921&lt;/font&gt;&lt;/h1&gt;&lt;div style=&quot;caret-color: rgb(0, 0, 0); color: rgb(0, 0, 0); font-family: Helvetica; font-style: normal; font-variant-caps: normal; font-weight: 400; letter-spacing: normal; orphans: auto; text-align: center; text-indent: 0px; text-transform: none; white-space: normal; widows: auto; word-spacing: 0px; -webkit-text-stroke-width: 0px; text-decoration: none; font-size: 16px;&quot;&gt;&lt;span style=&quot;background-color: rgb(255, 255, 255);&quot;&gt;&lt;font style=&quot;font-size: 16px;&quot; color=&quot;#1a1a1a&quot; face=&quot;Helvetica&quot;&gt;Married 9 May 1871 in Wallasey, Cheshire, England&lt;/font&gt;&lt;/span&gt;&lt;/div&gt;" style="ellipse;whiteSpace=wrap;html=1;aspect=fixed;" parent="1" vertex="1">
          <mxGeometry x="360" y="35" width="180" height="180" as="geometry" />
        </mxCell>
        <mxCell id="ZmS5W_vSXkEM8_8rMccr-18" value="&lt;h1 style=&quot;margin: 0px 0px 0.7em; padding: 0px; border: 0px; font-stretch: inherit; line-height: 100%; font-family: &amp;quot;Open Sans&amp;quot;, Helvetica, Arial, sans-serif; font-size-adjust: inherit; font-kerning: inherit; font-variant-alternates: inherit; font-variant-ligatures: inherit; font-variant-numeric: inherit; font-variant-east-asian: inherit; font-variant-position: inherit; font-feature-settings: inherit; font-optical-sizing: inherit; font-variation-settings: inherit; overflow-wrap: break-word; color: rgb(57, 58, 60); font-size: 16px;&quot;&gt;&lt;font style=&quot;font-size: 16px;&quot;&gt;&lt;span style=&quot;margin: 0px; padding: 0px; border: 0px; font-style: inherit; font-variant-caps: inherit; font-stretch: inherit; line-height: inherit; font-family: inherit; font-size-adjust: inherit; font-kerning: inherit; font-variant-alternates: inherit; font-variant-ligatures: inherit; font-variant-numeric: inherit; font-variant-east-asian: inherit; font-variant-position: inherit; font-feature-settings: inherit; font-optical-sizing: inherit; font-variation-settings: inherit; overflow-wrap: break-word;&quot;&gt;Florence (Peach) Burcher&lt;/span&gt;&amp;nbsp;&lt;/font&gt;&lt;/h1&gt;&lt;h1 style=&quot;margin: 0px 0px 0.7em; padding: 0px; border: 0px; font-stretch: inherit; line-height: 100%; font-family: &amp;quot;Open Sans&amp;quot;, Helvetica, Arial, sans-serif; font-size-adjust: inherit; font-kerning: inherit; font-variant-alternates: inherit; font-variant-ligatures: inherit; font-variant-numeric: inherit; font-variant-east-asian: inherit; font-variant-position: inherit; font-feature-settings: inherit; font-optical-sizing: inherit; font-variation-settings: inherit; overflow-wrap: break-word; color: rgb(57, 58, 60); font-size: 16px;&quot;&gt;&lt;font style=&quot;font-size: 16px; font-weight: normal;&quot;&gt;1884 - 1967&lt;/font&gt;&lt;/h1&gt;&lt;div style=&quot;caret-color: rgb(0, 0, 0); color: rgb(0, 0, 0); font-family: Helvetica; font-style: normal; font-variant-caps: normal; letter-spacing: normal; text-indent: 0px; text-transform: none; white-space: normal; word-spacing: 0px; -webkit-text-stroke-width: 0px; text-decoration: none; font-size: 16px; line-height: 100%;&quot;&gt;&lt;div style=&quot;line-height: 100%;&quot;&gt;&lt;span style=&quot;background-color: rgb(255, 255, 255);&quot;&gt;&lt;font style=&quot;font-size: 16px;&quot; face=&quot;jN4gn-6lTFqfSW2iRNwo&quot;&gt;Married Apr 1909 in St Aidans Church, Remuera, Auckland&lt;/font&gt;&lt;/span&gt;&lt;br&gt;&lt;/div&gt;&lt;div style=&quot;font-weight: 400; font-size: 16px;&quot;&gt;&lt;span style=&quot;background-color: rgb(255, 255, 255);&quot;&gt;&lt;font face=&quot;jN4gn-6lTFqfSW2iRNwo&quot;&gt;&lt;br&gt;&lt;/font&gt;&lt;/span&gt;&lt;/div&gt;&lt;/div&gt;" style="ellipse;whiteSpace=wrap;html=1;aspect=fixed;" parent="1" vertex="1">
          <mxGeometry x="-557" y="280" width="180" height="180" as="geometry" />
        </mxCell>
        <mxCell id="ZmS5W_vSXkEM8_8rMccr-19" value="Biography&amp;nbsp;" style="swimlane;whiteSpace=wrap;html=1;" parent="1" vertex="1" collapsed="1">
          <mxGeometry x="-810" y="450" width="173" height="20" as="geometry">
            <mxRectangle x="-413" y="450" width="543" height="320" as="alternateBounds" />
          </mxGeometry>
        </mxCell>
        <mxCell id="ZmS5W_vSXkEM8_8rMccr-21" value="&lt;h1 style=&quot;margin-top: 0px;&quot;&gt;&lt;p style=&quot;font-weight: 400; margin: 1.5em 0px; padding: 0px; border: 0px; font-stretch: inherit; font-size: 14px; line-height: 1.5em; font-family: &amp;quot;Open Sans&amp;quot;, Helvetica, Arial, sans-serif; font-size-adjust: inherit; font-kerning: inherit; font-variant-alternates: inherit; font-variant-ligatures: inherit; font-variant-numeric: inherit; font-variant-east-asian: inherit; font-variant-position: inherit; font-feature-settings: inherit; font-optical-sizing: inherit; font-variation-settings: inherit; overflow-wrap: break-word;&quot;&gt;New Zealand Herald 15 April 1909&lt;/p&gt;&lt;p style=&quot;font-weight: 400; margin: 1.5em 0px; padding: 0px; border: 0px; font-stretch: inherit; font-size: 14px; line-height: 1.5em; font-family: &amp;quot;Open Sans&amp;quot;, Helvetica, Arial, sans-serif; font-size-adjust: inherit; font-kerning: inherit; font-variant-alternates: inherit; font-variant-ligatures: inherit; font-variant-numeric: inherit; font-variant-east-asian: inherit; font-variant-position: inherit; font-feature-settings: inherit; font-optical-sizing: inherit; font-variation-settings: inherit; overflow-wrap: break-word;&quot;&gt;The marriage of Miss Florence Peach, second daughter of Mr. Jno. Peach, of Green Lane, to Mr. Albert Burcher, secretary of Messrs. Chambers and Son, Ltd., of this, city, took place at St. Aidan&#39;s Church, Remuera, on Tuesday. The bride was given away by her brother. Mr, R. F. D. Abbott officiated as best man, and Miss Kathleen Morrin, of Remuera, attended as bridesmaid. The service was conducted by the Rev. A. Fowler. A reception was afterwards held at the residence of the bride&#39;s parents, and the happy couple took their departure for Hamilton, en route for the Wanganui River, shortly after four o&#39;clock.&lt;/p&gt;&lt;p style=&quot;font-weight: 400; margin: 1.5em 0px; padding: 0px; border: 0px; font-stretch: inherit; font-size: 14px; line-height: 1.5em; font-family: &amp;quot;Open Sans&amp;quot;, Helvetica, Arial, sans-serif; font-size-adjust: inherit; font-kerning: inherit; font-variant-alternates: inherit; font-variant-ligatures: inherit; font-variant-numeric: inherit; font-variant-east-asian: inherit; font-variant-position: inherit; font-feature-settings: inherit; font-optical-sizing: inherit; font-variation-settings: inherit; overflow-wrap: break-word;&quot;&gt;&lt;span style=&quot;background-color: rgb(255, 255, 255);&quot;&gt;Purewa Cemetery, 16 Feb 1953&lt;/span&gt;&lt;br&gt;&lt;/p&gt;&lt;br style=&quot;font-weight: 400;&quot; class=&quot;Apple-interchange-newline&quot;&gt;&lt;/h1&gt;" style="text;html=1;whiteSpace=wrap;overflow=hidden;rounded=0;" parent="ZmS5W_vSXkEM8_8rMccr-19" vertex="1">
          <mxGeometry y="30" width="540" height="380" as="geometry" />
        </mxCell>
        <mxCell id="ZmS5W_vSXkEM8_8rMccr-24" value="Biography&amp;nbsp;" style="swimlane;whiteSpace=wrap;html=1;" parent="1" vertex="1" collapsed="1">
          <mxGeometry x="-557" y="450" width="173" height="20" as="geometry">
            <mxRectangle x="-160" y="450" width="543" height="320" as="alternateBounds" />
          </mxGeometry>
        </mxCell>
        <mxCell id="ZmS5W_vSXkEM8_8rMccr-25" value="&lt;h1 style=&quot;margin-top: 0px;&quot;&gt;&lt;p style=&quot;font-weight: 400; margin: 1.5em 0px; padding: 0px; border: 0px; font-stretch: inherit; font-size: 14px; line-height: 1.5em; font-family: &amp;quot;Open Sans&amp;quot;, Helvetica, Arial, sans-serif; font-size-adjust: inherit; font-kerning: inherit; font-variant-alternates: inherit; font-variant-ligatures: inherit; font-variant-numeric: inherit; font-variant-east-asian: inherit; font-variant-position: inherit; font-feature-settings: inherit; font-optical-sizing: inherit; font-variation-settings: inherit; overflow-wrap: break-word;&quot;&gt;New Zealand Herald 15 April 1909&lt;/p&gt;&lt;p style=&quot;font-weight: 400; margin: 1.5em 0px; padding: 0px; border: 0px; font-stretch: inherit; font-size: 14px; line-height: 1.5em; font-family: &amp;quot;Open Sans&amp;quot;, Helvetica, Arial, sans-serif; font-size-adjust: inherit; font-kerning: inherit; font-variant-alternates: inherit; font-variant-ligatures: inherit; font-variant-numeric: inherit; font-variant-east-asian: inherit; font-variant-position: inherit; font-feature-settings: inherit; font-optical-sizing: inherit; font-variation-settings: inherit; overflow-wrap: break-word;&quot;&gt;The marriage of Miss Florence Peach, second daughter of Mr. Jno. Peach, of Green Lane, to Mr. Albert Burcher, secretary of Messrs. Chambers and Son, Ltd., of this, city, took place at St. Aidan&#39;s Church, Remuera, on Tuesday. The bride was given away by her brother. Mr, R. F. D. Abbott officiated as best man, and Miss Kathleen Morrin, of Remuera, attended as bridesmaid. The service was conducted by the Rev. A. Fowler. A reception was afterwards held at the residence of the bride&#39;s parents, and the happy couple took their departure for Hamilton, en route for the Wanganui River, shortly after four o&#39;clock.&lt;/p&gt;&lt;p style=&quot;font-weight: 400; margin: 1.5em 0px; padding: 0px; border: 0px; font-stretch: inherit; font-size: 14px; line-height: 1.5em; font-family: &amp;quot;Open Sans&amp;quot;, Helvetica, Arial, sans-serif; font-size-adjust: inherit; font-kerning: inherit; font-variant-alternates: inherit; font-variant-ligatures: inherit; font-variant-numeric: inherit; font-variant-east-asian: inherit; font-variant-position: inherit; font-feature-settings: inherit; font-optical-sizing: inherit; font-variation-settings: inherit; overflow-wrap: break-word;&quot;&gt;&lt;span style=&quot;background-color: rgb(255, 255, 255);&quot;&gt;BURIED 13 March 1967 at Purewa Cemetery - aged 83&lt;/span&gt;&lt;br&gt;&lt;/p&gt;&lt;/h1&gt;" style="text;html=1;whiteSpace=wrap;overflow=hidden;rounded=0;" parent="ZmS5W_vSXkEM8_8rMccr-24" vertex="1">
          <mxGeometry y="30" width="540" height="380" as="geometry" />
        </mxCell>
        <mxCell id="ZmS5W_vSXkEM8_8rMccr-29" style="edgeStyle=orthogonalEdgeStyle;rounded=0;orthogonalLoop=1;jettySize=auto;html=1;exitX=1;exitY=0.5;exitDx=0;exitDy=0;entryX=0;entryY=0.5;entryDx=0;entryDy=0;endArrow=none;endFill=0;" parent="1" source="ZmS5W_vSXkEM8_8rMccr-26" target="ZmS5W_vSXkEM8_8rMccr-28" edge="1">
          <mxGeometry relative="1" as="geometry" />
        </mxCell>
        <mxCell id="ZmS5W_vSXkEM8_8rMccr-26" value="&lt;h1 style=&quot;font-style: normal; font-variant-caps: normal; letter-spacing: normal; text-indent: 0px; text-transform: none; white-space: normal; word-spacing: 0px; -webkit-text-stroke-width: 0px; text-decoration: none; margin: 0px 0px 0.7em; padding: 0px; border: 0px; font-stretch: inherit; font-size: 16px; line-height: 100%; font-family: &amp;quot;Open Sans&amp;quot;, Helvetica, Arial, sans-serif; font-size-adjust: inherit; font-kerning: inherit; font-variant-alternates: inherit; font-variant-ligatures: inherit; font-variant-numeric: inherit; font-variant-east-asian: inherit; font-variant-position: inherit; font-feature-settings: inherit; font-optical-sizing: inherit; font-variation-settings: inherit; overflow-wrap: break-word; color: rgb(57, 58, 60);&quot;&gt;&lt;span style=&quot;margin: 0px; padding: 0px; border: 0px; font-style: inherit; font-variant-caps: inherit; font-stretch: inherit; font-size: inherit; line-height: inherit; font-family: inherit; font-size-adjust: inherit; font-kerning: inherit; font-variant-alternates: inherit; font-variant-ligatures: inherit; font-variant-numeric: inherit; font-variant-east-asian: inherit; font-variant-position: inherit; font-feature-settings: inherit; font-optical-sizing: inherit; font-variation-settings: inherit; overflow-wrap: break-word;&quot;&gt;Annie Cecilia (Burcher) Walker&lt;/span&gt;&lt;span style=&quot;font-weight: normal;&quot;&gt;&amp;nbsp;&lt;/span&gt;&lt;/h1&gt;&lt;h1 style=&quot;font-style: normal; font-variant-caps: normal; letter-spacing: normal; text-indent: 0px; text-transform: none; white-space: normal; word-spacing: 0px; -webkit-text-stroke-width: 0px; text-decoration: none; margin: 0px 0px 0.7em; padding: 0px; border: 0px; font-stretch: inherit; font-size: 16px; line-height: 100%; font-family: &amp;quot;Open Sans&amp;quot;, Helvetica, Arial, sans-serif; font-size-adjust: inherit; font-kerning: inherit; font-variant-alternates: inherit; font-variant-ligatures: inherit; font-variant-numeric: inherit; font-variant-east-asian: inherit; font-variant-position: inherit; font-feature-settings: inherit; font-optical-sizing: inherit; font-variation-settings: inherit; overflow-wrap: break-word; color: rgb(57, 58, 60);&quot;&gt;&lt;span style=&quot;font-weight: normal;&quot;&gt;abt. 1880&lt;/span&gt;&lt;/h1&gt;&lt;div&gt;&lt;span style=&quot;text-align: start; font-family: &amp;quot;Open Sans&amp;quot;, Helvetica, Arial, sans-serif; font-size: 14px; background-color: rgb(255, 255, 255);&quot;&gt;Married 1916&lt;/span&gt;&lt;span style=&quot;font-weight: normal;&quot;&gt;&lt;br&gt;&lt;/span&gt;&lt;/div&gt;" style="ellipse;whiteSpace=wrap;html=1;aspect=fixed;align=center;" parent="1" vertex="1">
          <mxGeometry x="-170" y="280" width="170" height="170" as="geometry" />
        </mxCell>
        <mxCell id="ZmS5W_vSXkEM8_8rMccr-28" value="&lt;h1 style=&quot;margin: 0px 0px 0.7em; padding: 0px; border: 0px; font-stretch: inherit; line-height: 100%; font-size-adjust: inherit; font-kerning: inherit; font-variant-alternates: inherit; font-variant-ligatures: inherit; font-variant-numeric: inherit; font-variant-east-asian: inherit; font-variant-position: inherit; font-feature-settings: inherit; font-optical-sizing: inherit; font-variation-settings: inherit; overflow-wrap: break-word; color: rgb(57, 58, 60);&quot;&gt;&lt;span style=&quot;caret-color: rgb(0, 0, 0); color: rgb(0, 0, 0); font-family: &amp;quot;Open Sans&amp;quot;, Helvetica, Arial, sans-serif; text-align: start; background-color: rgb(255, 255, 255);&quot;&gt;&lt;font style=&quot;font-size: 16px;&quot;&gt;John James Frederick Walker&lt;/font&gt;&lt;/span&gt;&lt;br&gt;&lt;/h1&gt;" style="whiteSpace=wrap;html=1;aspect=fixed;" parent="1" vertex="1">
          <mxGeometry x="40" y="280" width="170" height="170" as="geometry" />
        </mxCell>
        <mxCell id="ZmS5W_vSXkEM8_8rMccr-33" style="edgeStyle=orthogonalEdgeStyle;rounded=0;orthogonalLoop=1;jettySize=auto;html=1;exitX=1;exitY=0.5;exitDx=0;exitDy=0;endArrow=none;endFill=0;" parent="1" source="ZmS5W_vSXkEM8_8rMccr-30" target="ZmS5W_vSXkEM8_8rMccr-32" edge="1">
          <mxGeometry relative="1" as="geometry" />
        </mxCell>
        <mxCell id="ZmS5W_vSXkEM8_8rMccr-30" value="&lt;h1 style=&quot;margin: 0px 0px 0.7em; padding: 0px; border: 0px; font-stretch: inherit; font-size: 16px; line-height: 100%; font-family: &amp;quot;Open Sans&amp;quot;, Helvetica, Arial, sans-serif; font-size-adjust: inherit; font-kerning: inherit; font-variant-alternates: inherit; font-variant-ligatures: inherit; font-variant-numeric: inherit; font-variant-east-asian: inherit; font-variant-position: inherit; font-feature-settings: inherit; font-optical-sizing: inherit; font-variation-settings: inherit; overflow-wrap: break-word; color: rgb(57, 58, 60);&quot;&gt;&lt;span style=&quot;margin: 0px; padding: 0px; border: 0px; font-style: inherit; font-variant-caps: inherit; font-weight: inherit; font-stretch: inherit; font-size: inherit; line-height: inherit; font-family: inherit; font-size-adjust: inherit; font-kerning: inherit; font-variant-alternates: inherit; font-variant-ligatures: inherit; font-variant-numeric: inherit; font-variant-east-asian: inherit; font-variant-position: inherit; font-feature-settings: inherit; font-optical-sizing: inherit; font-variation-settings: inherit; overflow-wrap: break-word;&quot;&gt;Maud Katherine Kerry (Burcher) Adkins&lt;/span&gt;&amp;nbsp;&lt;/h1&gt;&lt;h1 style=&quot;margin: 0px 0px 0.7em; padding: 0px; border: 0px; font-stretch: inherit; font-size: 16px; line-height: 100%; font-family: &amp;quot;Open Sans&amp;quot;, Helvetica, Arial, sans-serif; font-size-adjust: inherit; font-kerning: inherit; font-variant-alternates: inherit; font-variant-ligatures: inherit; font-variant-numeric: inherit; font-variant-east-asian: inherit; font-variant-position: inherit; font-feature-settings: inherit; font-optical-sizing: inherit; font-variation-settings: inherit; overflow-wrap: break-word; color: rgb(57, 58, 60);&quot;&gt;1880 - 1949&lt;/h1&gt;&lt;div&gt;&lt;span style=&quot;text-align: start; font-family: &amp;quot;Open Sans&amp;quot;, Helvetica, Arial, sans-serif; font-size: 14px; background-color: rgb(255, 255, 255);&quot;&gt;Married 1901&amp;nbsp;&lt;/span&gt;&lt;br&gt;&lt;/div&gt;" style="ellipse;whiteSpace=wrap;html=1;aspect=fixed;align=center;" parent="1" vertex="1">
          <mxGeometry x="310" y="280" width="170" height="170" as="geometry" />
        </mxCell>
        <mxCell id="ZmS5W_vSXkEM8_8rMccr-32" value="&lt;h1 style=&quot;margin: 0px 0px 0.7em; padding: 0px; border: 0px; font-stretch: inherit; line-height: 100%; font-size-adjust: inherit; font-kerning: inherit; font-variant-alternates: inherit; font-variant-ligatures: inherit; font-variant-numeric: inherit; font-variant-east-asian: inherit; font-variant-position: inherit; font-feature-settings: inherit; font-optical-sizing: inherit; font-variation-settings: inherit; overflow-wrap: break-word; color: rgb(57, 58, 60);&quot;&gt;&lt;span style=&quot;caret-color: rgb(0, 0, 0); color: rgb(0, 0, 0); font-family: &amp;quot;Open Sans&amp;quot;, Helvetica, Arial, sans-serif; text-align: start; background-color: rgb(255, 255, 255);&quot;&gt;&lt;font style=&quot;font-size: 16px;&quot;&gt;Arthur Douglas John Adkins&lt;/font&gt;&lt;/span&gt;&lt;br&gt;&lt;/h1&gt;" style="whiteSpace=wrap;html=1;aspect=fixed;" parent="1" vertex="1">
          <mxGeometry x="520" y="280" width="170" height="170" as="geometry" />
        </mxCell>
        <mxCell id="ZmS5W_vSXkEM8_8rMccr-40" style="edgeStyle=orthogonalEdgeStyle;rounded=0;orthogonalLoop=1;jettySize=auto;html=1;exitX=1;exitY=0.5;exitDx=0;exitDy=0;entryX=0;entryY=0.5;entryDx=0;entryDy=0;endArrow=none;endFill=0;" parent="1" source="ZmS5W_vSXkEM8_8rMccr-36" target="ZmS5W_vSXkEM8_8rMccr-39" edge="1">
          <mxGeometry relative="1" as="geometry" />
        </mxCell>
        <mxCell id="ZmS5W_vSXkEM8_8rMccr-36" value="&lt;h1 style=&quot;margin: 0px 0px 0.7em; padding: 0px; border: 0px; font-stretch: inherit; line-height: 100%; font-family: &amp;quot;Open Sans&amp;quot;, Helvetica, Arial, sans-serif; font-size-adjust: inherit; font-kerning: inherit; font-variant-alternates: inherit; font-variant-ligatures: inherit; font-variant-numeric: inherit; font-variant-east-asian: inherit; font-variant-position: inherit; font-feature-settings: inherit; font-optical-sizing: inherit; font-variation-settings: inherit; overflow-wrap: break-word; color: rgb(57, 58, 60); font-size: 16px;&quot;&gt;&lt;span style=&quot;margin: 0px; padding: 0px; border: 0px; font-style: inherit; font-variant-caps: inherit; font-stretch: inherit; line-height: inherit; font-family: inherit; font-size-adjust: inherit; font-kerning: inherit; font-variant-alternates: inherit; font-variant-ligatures: inherit; font-variant-numeric: inherit; font-variant-east-asian: inherit; font-variant-position: inherit; font-feature-settings: inherit; font-optical-sizing: inherit; font-variation-settings: inherit; overflow-wrap: break-word;&quot;&gt;&lt;font style=&quot;font-size: 16px;&quot;&gt;Vicary Gibbs Burcher&lt;/font&gt;&lt;/span&gt;&lt;/h1&gt;&lt;h1 style=&quot;margin: 0px 0px 0.7em; padding: 0px; border: 0px; font-stretch: inherit; line-height: 100%; font-family: &amp;quot;Open Sans&amp;quot;, Helvetica, Arial, sans-serif; font-size-adjust: inherit; font-kerning: inherit; font-variant-alternates: inherit; font-variant-ligatures: inherit; font-variant-numeric: inherit; font-variant-east-asian: inherit; font-variant-position: inherit; font-feature-settings: inherit; font-optical-sizing: inherit; font-variation-settings: inherit; overflow-wrap: break-word; color: rgb(57, 58, 60); font-size: 16px;&quot;&gt;&lt;font style=&quot;font-size: 16px;&quot;&gt;1888 - 1918&lt;/font&gt;&lt;/h1&gt;&lt;div style=&quot;font-size: 16px; line-height: 100%;&quot;&gt;&lt;span style=&quot;font-family: &amp;quot;Open Sans&amp;quot;, Helvetica, Arial, sans-serif; background-color: rgb(255, 255, 255);&quot;&gt;&lt;font style=&quot;font-size: 16px;&quot;&gt;Married 27 Jun 1916 in Parnell, Auckland&lt;/font&gt;&lt;/span&gt;&lt;br&gt;&lt;/div&gt;" style="whiteSpace=wrap;html=1;aspect=fixed;" parent="1" vertex="1">
          <mxGeometry x="790" y="280" width="170" height="170" as="geometry" />
        </mxCell>
        <mxCell id="ZmS5W_vSXkEM8_8rMccr-37" value="Biography&amp;nbsp;" style="swimlane;whiteSpace=wrap;html=1;" parent="1" vertex="1" collapsed="1">
          <mxGeometry x="790" y="450" width="173" height="20" as="geometry">
            <mxRectangle x="790" y="450" width="543" height="120" as="alternateBounds" />
          </mxGeometry>
        </mxCell>
        <mxCell id="ZmS5W_vSXkEM8_8rMccr-38" value="&lt;h1 style=&quot;margin-top: 0px;&quot;&gt;&lt;p style=&quot;font-weight: 400; margin: 1.5em 0px; padding: 0px; border: 0px; font-stretch: inherit; font-size: 14px; line-height: 1.5em; font-family: &amp;quot;Open Sans&amp;quot;, Helvetica, Arial, sans-serif; font-size-adjust: inherit; font-kerning: inherit; font-variant-alternates: inherit; font-variant-ligatures: inherit; font-variant-numeric: inherit; font-variant-east-asian: inherit; font-variant-position: inherit; font-feature-settings: inherit; font-optical-sizing: inherit; font-variation-settings: inherit; overflow-wrap: break-word;&quot;&gt;&lt;span style=&quot;background-color: rgb(255, 255, 255);&quot;&gt;Dies in the 1918 influenza epidemic&lt;/span&gt;&lt;br&gt;&lt;/p&gt;&lt;/h1&gt;" style="text;html=1;whiteSpace=wrap;overflow=hidden;rounded=0;" parent="ZmS5W_vSXkEM8_8rMccr-37" vertex="1">
          <mxGeometry y="30" width="540" height="280" as="geometry" />
        </mxCell>
        <mxCell id="ZmS5W_vSXkEM8_8rMccr-44" style="edgeStyle=orthogonalEdgeStyle;rounded=0;orthogonalLoop=1;jettySize=auto;html=1;exitX=0;exitY=0.5;exitDx=0;exitDy=0;" parent="1" source="ZmS5W_vSXkEM8_8rMccr-39" target="ZmS5W_vSXkEM8_8rMccr-43" edge="1">
          <mxGeometry relative="1" as="geometry" />
        </mxCell>
        <mxCell id="ZmS5W_vSXkEM8_8rMccr-39" value="&lt;h1 style=&quot;margin: 0px 0px 0.7em; padding: 0px; border: 0px; font-stretch: inherit; line-height: 100%; font-family: &amp;quot;Open Sans&amp;quot;, Helvetica, Arial, sans-serif; font-size-adjust: inherit; font-kerning: inherit; font-variant-alternates: inherit; font-variant-ligatures: inherit; font-variant-numeric: inherit; font-variant-east-asian: inherit; font-variant-position: inherit; font-feature-settings: inherit; font-optical-sizing: inherit; font-variation-settings: inherit; overflow-wrap: break-word; color: rgb(57, 58, 60); font-size: 16px;&quot;&gt;&lt;font style=&quot;font-size: 16px;&quot;&gt;&lt;span style=&quot;margin: 0px; padding: 0px; border: 0px; font-style: inherit; font-variant-caps: inherit; font-stretch: inherit; line-height: inherit; font-family: inherit; font-size-adjust: inherit; font-kerning: inherit; font-variant-alternates: inherit; font-variant-ligatures: inherit; font-variant-numeric: inherit; font-variant-east-asian: inherit; font-variant-position: inherit; font-feature-settings: inherit; font-optical-sizing: inherit; font-variation-settings: inherit; overflow-wrap: break-word;&quot;&gt;Ina Marion (Norton) Burcher&lt;/span&gt;&amp;nbsp;&lt;/font&gt;&lt;/h1&gt;&lt;h1 style=&quot;margin: 0px 0px 0.7em; padding: 0px; border: 0px; font-stretch: inherit; line-height: 100%; font-family: &amp;quot;Open Sans&amp;quot;, Helvetica, Arial, sans-serif; font-size-adjust: inherit; font-kerning: inherit; font-variant-alternates: inherit; font-variant-ligatures: inherit; font-variant-numeric: inherit; font-variant-east-asian: inherit; font-variant-position: inherit; font-feature-settings: inherit; font-optical-sizing: inherit; font-variation-settings: inherit; overflow-wrap: break-word; color: rgb(57, 58, 60); font-size: 16px;&quot;&gt;&lt;span style=&quot;font-weight: normal;&quot;&gt;&lt;font style=&quot;font-size: 16px;&quot;&gt;1892 - 1933&lt;/font&gt;&lt;/span&gt;&lt;/h1&gt;&lt;div style=&quot;font-size: 16px; line-height: 100%;&quot;&gt;&lt;span style=&quot;font-family: &amp;quot;Open Sans&amp;quot;, Helvetica, Arial, sans-serif; background-color: rgb(255, 255, 255);&quot;&gt;&lt;font style=&quot;font-size: 16px;&quot;&gt;Married 27 Jun 1916 in Parnell, Auckland&lt;/font&gt;&lt;/span&gt;&lt;br&gt;&lt;/div&gt;" style="ellipse;whiteSpace=wrap;html=1;aspect=fixed;align=center;" parent="1" vertex="1">
          <mxGeometry x="1040" y="280" width="170" height="170" as="geometry" />
        </mxCell>
        <mxCell id="ZmS5W_vSXkEM8_8rMccr-41" value="Biography&amp;nbsp;" style="swimlane;whiteSpace=wrap;html=1;" parent="1" vertex="1" collapsed="1">
          <mxGeometry x="1037" y="450" width="173" height="20" as="geometry">
            <mxRectangle x="1037" y="450" width="543" height="120" as="alternateBounds" />
          </mxGeometry>
        </mxCell>
        <mxCell id="ZmS5W_vSXkEM8_8rMccr-42" value="&lt;h1 style=&quot;margin-top: 0px;&quot;&gt;&lt;p style=&quot;font-weight: 400; margin: 1.5em 0px; padding: 0px; border: 0px; font-stretch: inherit; font-size: 14px; line-height: 1.5em; font-family: &amp;quot;Open Sans&amp;quot;, Helvetica, Arial, sans-serif; font-size-adjust: inherit; font-kerning: inherit; font-variant-alternates: inherit; font-variant-ligatures: inherit; font-variant-numeric: inherit; font-variant-east-asian: inherit; font-variant-position: inherit; font-feature-settings: inherit; font-optical-sizing: inherit; font-variation-settings: inherit; overflow-wrap: break-word;&quot;&gt;&lt;span style=&quot;background-color: rgb(255, 255, 255);&quot;&gt;Died&amp;nbsp;&lt;/span&gt;&lt;strong style=&quot;margin: 0px; padding: 0px; border: 0px; font-stretch: inherit; line-height: inherit; font-size-adjust: inherit; font-kerning: inherit; font-variant-alternates: inherit; font-variant-ligatures: inherit; font-variant-numeric: inherit; font-variant-east-asian: inherit; font-variant-position: inherit; font-feature-settings: inherit; font-optical-sizing: inherit; font-variation-settings: inherit; overflow-wrap: break-word;&quot;&gt;6 Jul 1933&lt;/strong&gt;&lt;span style=&quot;background-color: rgb(255, 255, 255);&quot;&gt;&amp;nbsp;&lt;/span&gt;&lt;span style=&quot;margin: 0px; padding: 0px; border: 0px; font-stretch: inherit; line-height: inherit; font-size-adjust: inherit; font-kerning: inherit; font-variant-alternates: inherit; font-variant-ligatures: inherit; font-variant-numeric: inherit; font-variant-east-asian: inherit; font-variant-position: inherit; font-feature-settings: inherit; font-optical-sizing: inherit; font-variation-settings: inherit; overflow-wrap: break-word;&quot; title=&quot;Born 132 years ago; died at about age 41&quot;&gt;at about age 41&lt;/span&gt;&lt;span style=&quot;background-color: rgb(255, 255, 255);&quot;&gt;&amp;nbsp;in&amp;nbsp;&lt;/span&gt;&lt;strong style=&quot;margin: 0px; padding: 0px; border: 0px; font-stretch: inherit; line-height: inherit; font-size-adjust: inherit; font-kerning: inherit; font-variant-alternates: inherit; font-variant-ligatures: inherit; font-variant-numeric: inherit; font-variant-east-asian: inherit; font-variant-position: inherit; font-feature-settings: inherit; font-optical-sizing: inherit; font-variation-settings: inherit; overflow-wrap: break-word;&quot;&gt;Auckland&lt;/strong&gt;&lt;br&gt;&lt;/p&gt;&lt;/h1&gt;" style="text;html=1;whiteSpace=wrap;overflow=hidden;rounded=0;" parent="ZmS5W_vSXkEM8_8rMccr-41" vertex="1">
          <mxGeometry y="30" width="540" height="280" as="geometry" />
        </mxCell>
        <mxCell id="ZmS5W_vSXkEM8_8rMccr-43" value="&lt;h1 style=&quot;margin: 0px 0px 0.7em; padding: 0px; border: 0px; font-stretch: inherit; font-size: 16px; line-height: 1.4em; font-family: &amp;quot;Open Sans&amp;quot;, Helvetica, Arial, sans-serif; font-size-adjust: inherit; font-kerning: inherit; font-variant-alternates: inherit; font-variant-ligatures: inherit; font-variant-numeric: inherit; font-variant-east-asian: inherit; font-variant-position: inherit; font-feature-settings: inherit; font-optical-sizing: inherit; font-variation-settings: inherit; overflow-wrap: break-word; color: rgb(57, 58, 60);&quot;&gt;&lt;span style=&quot;margin: 0px; padding: 0px; border: 0px; font-style: inherit; font-variant-caps: inherit; font-weight: inherit; font-stretch: inherit; font-size: inherit; line-height: inherit; font-family: inherit; font-size-adjust: inherit; font-kerning: inherit; font-variant-alternates: inherit; font-variant-ligatures: inherit; font-variant-numeric: inherit; font-variant-east-asian: inherit; font-variant-position: inherit; font-feature-settings: inherit; font-optical-sizing: inherit; font-variation-settings: inherit; overflow-wrap: break-word;&quot;&gt;Lesley June (Burcher) Collins&lt;/span&gt;&amp;nbsp;1918 - 1982&lt;/h1&gt;" style="ellipse;whiteSpace=wrap;html=1;aspect=fixed;align=center;" parent="1" vertex="1">
          <mxGeometry x="920" y="520" width="170" height="170" as="geometry" />
        </mxCell>
        <mxCell id="yw08T7XUyzVqVWOrV2RB-1" value="Biography&amp;nbsp;" style="swimlane;whiteSpace=wrap;html=1;" vertex="1" collapsed="1" parent="1">
          <mxGeometry x="363.5" y="210" width="173" height="20" as="geometry">
            <mxRectangle x="363.5" y="210" width="543" height="120" as="alternateBounds" />
          </mxGeometry>
        </mxCell>
        <mxCell id="yw08T7XUyzVqVWOrV2RB-2" value="&lt;h1 style=&quot;margin-top: 0px;&quot;&gt;&lt;p style=&quot;font-weight: 400; margin: 1.5em 0px; padding: 0px; border: 0px; font-stretch: inherit; font-size: 14px; line-height: 1.5em; font-family: &amp;quot;Open Sans&amp;quot;, Helvetica, Arial, sans-serif; font-size-adjust: inherit; font-kerning: inherit; font-variant-alternates: inherit; font-variant-ligatures: inherit; font-variant-numeric: inherit; font-variant-east-asian: inherit; font-variant-position: inherit; font-feature-settings: inherit; font-optical-sizing: inherit; font-variation-settings: inherit; overflow-wrap: break-word;&quot;&gt;&lt;a href=&quot;https://en.wikipedia.org/wiki/Catherine_Wright_Burcher&quot;&gt;https://en.wikipedia.org/wiki/Catherine_Wright_Burcher&lt;/a&gt;&lt;br&gt;&lt;/p&gt;&lt;/h1&gt;" style="text;html=1;whiteSpace=wrap;overflow=hidden;rounded=0;fillColor=default;" vertex="1" parent="yw08T7XUyzVqVWOrV2RB-1">
          <mxGeometry y="30" width="540" height="90" as="geometry" />
        </mxCell>
        <mxCell id="yw08T7XUyzVqVWOrV2RB-4" value="Biography&amp;nbsp;" style="swimlane;whiteSpace=wrap;html=1;" vertex="1" collapsed="1" parent="1">
          <mxGeometry x="110" y="210" width="173" height="20" as="geometry">
            <mxRectangle x="110" y="210" width="543" height="120" as="alternateBounds" />
          </mxGeometry>
        </mxCell>
        <mxCell id="yw08T7XUyzVqVWOrV2RB-5" value="&lt;h1 style=&quot;margin-top: 0px; line-height: 80%;&quot;&gt;&lt;p style=&quot;font-weight: 400; margin: 1.5em 0px; padding: 0px; border: 0px; font-stretch: inherit; font-size: 14px; line-height: 80%; font-family: &amp;quot;Open Sans&amp;quot;, Helvetica, Arial, sans-serif; font-size-adjust: inherit; font-kerning: inherit; font-variant-alternates: inherit; font-variant-ligatures: inherit; font-variant-numeric: inherit; font-variant-east-asian: inherit; font-variant-position: inherit; font-feature-settings: inherit; font-optical-sizing: inherit; font-variation-settings: inherit; overflow-wrap: break-word;&quot;&gt;Birth:&amp;nbsp;&lt;span style=&quot;caret-color: rgb(51, 51, 51); color: rgb(51, 51, 51); font-family: &amp;quot;Helvetica Neue&amp;quot;, Helvetica, Arial, sans-serif; font-size: 15px; letter-spacing: 0.3px; background-color: rgb(255, 255, 255);&quot;&gt;St Helens, Lancashire, England 1845&lt;/span&gt;&lt;/p&gt;&lt;/h1&gt;" style="text;html=1;whiteSpace=wrap;overflow=hidden;rounded=0;fillColor=default;" vertex="1" parent="yw08T7XUyzVqVWOrV2RB-4">
          <mxGeometry y="30" width="540" height="90" as="geometry" />
        </mxCell>
        <mxCell id="yw08T7XUyzVqVWOrV2RB-9" style="edgeStyle=orthogonalEdgeStyle;rounded=0;orthogonalLoop=1;jettySize=auto;html=1;exitX=0.5;exitY=1;exitDx=0;exitDy=0;entryX=0.5;entryY=0;entryDx=0;entryDy=0;" edge="1" parent="1" source="yw08T7XUyzVqVWOrV2RB-6" target="ZmS5W_vSXkEM8_8rMccr-6">
          <mxGeometry relative="1" as="geometry">
            <Array as="points">
              <mxPoint x="75" y="20" />
              <mxPoint x="195" y="20" />
            </Array>
          </mxGeometry>
        </mxCell>
        <mxCell id="yw08T7XUyzVqVWOrV2RB-6" value="&lt;h1 style=&quot;margin: 0px 0px 0.7em; padding: 0px; border: 0px; font-stretch: inherit; line-height: 100%; font-size-adjust: inherit; font-kerning: inherit; font-variant-alternates: inherit; font-variant-ligatures: inherit; font-variant-numeric: inherit; font-variant-east-asian: inherit; font-variant-position: inherit; font-feature-settings: inherit; font-optical-sizing: inherit; font-variation-settings: inherit; overflow-wrap: break-word; font-size: 16px;&quot;&gt;&lt;font style=&quot;font-size: 16px;&quot; color=&quot;#1a1a1a&quot; face=&quot;Helvetica&quot;&gt;&lt;span style=&quot;margin: 0px; padding: 0px; border: 0px; font-style: inherit; font-variant-caps: inherit; font-stretch: inherit; line-height: inherit; font-size-adjust: inherit; font-kerning: inherit; font-variant-alternates: inherit; font-variant-ligatures: inherit; font-variant-numeric: inherit; font-variant-east-asian: inherit; font-variant-position: inherit; font-feature-settings: inherit; font-optical-sizing: inherit; font-variation-settings: inherit; overflow-wrap: break-word;&quot;&gt;&lt;font style=&quot;font-size: 16px;&quot;&gt;William Gibbs Burcher&lt;/font&gt;&lt;/span&gt;&amp;nbsp;&lt;/font&gt;&lt;/h1&gt;&lt;h1 style=&quot;margin: 0px 0px 0.7em; padding: 0px; border: 0px; font-stretch: inherit; line-height: 100%; font-size-adjust: inherit; font-kerning: inherit; font-variant-alternates: inherit; font-variant-ligatures: inherit; font-variant-numeric: inherit; font-variant-east-asian: inherit; font-variant-position: inherit; font-feature-settings: inherit; font-optical-sizing: inherit; font-variation-settings: inherit; overflow-wrap: break-word; font-size: 16px;&quot;&gt;&lt;span style=&quot;font-weight: normal;&quot;&gt;&lt;font face=&quot;Helvetica&quot; style=&quot;font-size: 16px;&quot; color=&quot;#1a1a1a&quot;&gt;1810 - 1854&lt;/font&gt;&lt;/span&gt;&lt;/h1&gt;&lt;div style=&quot;font-size: 16px;&quot;&gt;&lt;span style=&quot;color: rgb(26, 26, 26); background-color: rgb(255, 255, 255);&quot;&gt;Married&amp;nbsp;&lt;/span&gt;&lt;span style=&quot;caret-color: rgb(51, 51, 51); color: rgb(51, 51, 51); font-family: &amp;quot;Helvetica Neue&amp;quot;, Helvetica, Arial, sans-serif; font-size: 15px; letter-spacing: 0.3px; text-align: left; background-color: rgb(255, 255, 255);&quot;&gt;July 10 1834&lt;/span&gt;&lt;span style=&quot;color: rgb(26, 26, 26); background-color: rgb(255, 255, 255);&quot;&gt;&amp;nbsp;in&amp;nbsp;&lt;/span&gt;&lt;span style=&quot;caret-color: rgb(51, 51, 51); color: rgb(51, 51, 51); font-family: &amp;quot;Helvetica Neue&amp;quot;, Helvetica, Arial, sans-serif; font-size: 15px; letter-spacing: 0.3px; text-align: left; background-color: rgb(255, 255, 255);&quot;&gt;Bristol, Gloucestershire, England&lt;/span&gt;&lt;span style=&quot;font-size: 23px; font-family: qMxfg6gYd-HVo0lsF2Li; font-weight: normal;&quot;&gt;&lt;font style=&quot;font-size: 16px;&quot;&gt;&lt;br&gt;&lt;/font&gt;&lt;/span&gt;&lt;/div&gt;" style="whiteSpace=wrap;html=1;aspect=fixed;" vertex="1" parent="1">
          <mxGeometry x="-10" y="-200" width="170" height="170" as="geometry" />
        </mxCell>
        <mxCell id="yw08T7XUyzVqVWOrV2RB-10" style="edgeStyle=orthogonalEdgeStyle;rounded=0;orthogonalLoop=1;jettySize=auto;html=1;exitX=0.5;exitY=1;exitDx=0;exitDy=0;entryX=0.5;entryY=0;entryDx=0;entryDy=0;" edge="1" parent="1" source="yw08T7XUyzVqVWOrV2RB-7" target="ZmS5W_vSXkEM8_8rMccr-6">
          <mxGeometry relative="1" as="geometry">
            <Array as="points">
              <mxPoint x="330" y="20" />
              <mxPoint x="195" y="20" />
            </Array>
          </mxGeometry>
        </mxCell>
        <mxCell id="yw08T7XUyzVqVWOrV2RB-21" style="edgeStyle=orthogonalEdgeStyle;rounded=0;orthogonalLoop=1;jettySize=auto;html=1;exitX=0.5;exitY=1;exitDx=0;exitDy=0;" edge="1" parent="1" source="yw08T7XUyzVqVWOrV2RB-7" target="yw08T7XUyzVqVWOrV2RB-18">
          <mxGeometry relative="1" as="geometry">
            <Array as="points">
              <mxPoint x="330" y="20" />
              <mxPoint x="1540" y="20" />
            </Array>
          </mxGeometry>
        </mxCell>
        <mxCell id="yw08T7XUyzVqVWOrV2RB-22" style="edgeStyle=orthogonalEdgeStyle;rounded=0;orthogonalLoop=1;jettySize=auto;html=1;exitX=0.5;exitY=1;exitDx=0;exitDy=0;" edge="1" parent="1" source="yw08T7XUyzVqVWOrV2RB-7" target="yw08T7XUyzVqVWOrV2RB-19">
          <mxGeometry relative="1" as="geometry">
            <Array as="points">
              <mxPoint x="330" y="20" />
              <mxPoint x="1760" y="20" />
            </Array>
          </mxGeometry>
        </mxCell>
        <mxCell id="yw08T7XUyzVqVWOrV2RB-25" style="edgeStyle=orthogonalEdgeStyle;rounded=0;orthogonalLoop=1;jettySize=auto;html=1;exitX=0.5;exitY=1;exitDx=0;exitDy=0;" edge="1" parent="1" source="yw08T7XUyzVqVWOrV2RB-7" target="yw08T7XUyzVqVWOrV2RB-15">
          <mxGeometry relative="1" as="geometry">
            <Array as="points">
              <mxPoint x="330" y="20" />
              <mxPoint x="-1122" y="20" />
            </Array>
          </mxGeometry>
        </mxCell>
        <mxCell id="yw08T7XUyzVqVWOrV2RB-26" style="edgeStyle=orthogonalEdgeStyle;rounded=0;orthogonalLoop=1;jettySize=auto;html=1;exitX=0.5;exitY=1;exitDx=0;exitDy=0;" edge="1" parent="1" source="yw08T7XUyzVqVWOrV2RB-7" target="yw08T7XUyzVqVWOrV2RB-16">
          <mxGeometry relative="1" as="geometry">
            <Array as="points">
              <mxPoint x="330" y="20" />
              <mxPoint x="-912" y="20" />
            </Array>
          </mxGeometry>
        </mxCell>
        <mxCell id="yw08T7XUyzVqVWOrV2RB-7" value="&lt;h1 style=&quot;caret-color: rgb(0, 0, 0); color: rgb(0, 0, 0); font-family: Helvetica; font-style: normal; font-variant-caps: normal; letter-spacing: normal; orphans: auto; text-align: center; text-indent: 0px; text-transform: none; white-space: normal; widows: auto; word-spacing: 0px; -webkit-text-stroke-width: 0px; text-decoration: none; margin: 0px 0px 0.7em; padding: 0px; border: 0px; font-stretch: inherit; line-height: 16px; font-size-adjust: inherit; font-kerning: inherit; font-variant-alternates: inherit; font-variant-ligatures: inherit; font-variant-numeric: inherit; font-variant-east-asian: inherit; font-variant-position: inherit; font-feature-settings: inherit; font-optical-sizing: inherit; font-variation-settings: inherit; overflow-wrap: break-word; font-size: 16px;&quot;&gt;&lt;span style=&quot;font-family: inherit; font-size: inherit; font-style: inherit; font-variant-caps: inherit; font-weight: inherit; color: rgb(57, 58, 60); text-align: start;&quot;&gt;Susanna (Longhurst)&lt;/span&gt;&lt;font style=&quot;font-size: 16px;&quot; color=&quot;#1a1a1a&quot; face=&quot;Helvetica&quot;&gt;&lt;span style=&quot;margin: 0px; padding: 0px; border: 0px; font-style: inherit; font-variant-caps: inherit; font-stretch: inherit; line-height: inherit; font-size-adjust: inherit; font-kerning: inherit; font-variant-alternates: inherit; font-variant-ligatures: inherit; font-variant-numeric: inherit; font-variant-east-asian: inherit; font-variant-position: inherit; font-feature-settings: inherit; font-optical-sizing: inherit; font-variation-settings: inherit; overflow-wrap: break-word;&quot;&gt;&lt;font style=&quot;font-size: 16px;&quot;&gt;&amp;nbsp;Burcher&lt;/font&gt;&lt;/span&gt;&amp;nbsp;&lt;/font&gt;&lt;/h1&gt;&lt;h1 style=&quot;font-style: normal; font-variant-caps: normal; letter-spacing: normal; orphans: auto; text-align: center; text-indent: 0px; text-transform: none; white-space: normal; widows: auto; word-spacing: 0px; -webkit-text-stroke-width: 0px; text-decoration: none; margin: 0px 0px 0.7em; padding: 0px; border: 0px; font-stretch: inherit; line-height: 1.4em; font-family: &amp;quot;Open Sans&amp;quot;, Helvetica, Arial, sans-serif; font-size-adjust: inherit; font-kerning: inherit; font-variant-alternates: inherit; font-variant-ligatures: inherit; font-variant-numeric: inherit; font-variant-east-asian: inherit; font-variant-position: inherit; font-feature-settings: inherit; font-optical-sizing: inherit; font-variation-settings: inherit; overflow-wrap: break-word; color: rgb(57, 58, 60); font-size: 16px;&quot;&gt;&lt;span&gt;&amp;nbsp;&lt;span class=&quot;Apple-converted-space&quot;&gt;&amp;nbsp;&lt;/span&gt;&lt;/span&gt;&lt;font style=&quot;font-size: 16px; font-weight: normal;&quot;&gt;1816 - 1873&lt;/font&gt;&lt;/h1&gt;&lt;div style=&quot;caret-color: rgb(0, 0, 0); color: rgb(0, 0, 0); font-family: Helvetica; font-style: normal; font-variant-caps: normal; font-weight: 400; letter-spacing: normal; orphans: auto; text-align: center; text-indent: 0px; text-transform: none; white-space: normal; widows: auto; word-spacing: 0px; -webkit-text-stroke-width: 0px; text-decoration: none; font-size: 16px;&quot;&gt;&lt;span style=&quot;color: rgb(26, 26, 26); background-color: rgb(255, 255, 255);&quot;&gt;Married&amp;nbsp;&lt;/span&gt;&lt;span style=&quot;caret-color: rgb(51, 51, 51); color: rgb(51, 51, 51); font-family: &amp;quot;Helvetica Neue&amp;quot;, Helvetica, Arial, sans-serif; font-size: 15px; letter-spacing: 0.3px; text-align: left; background-color: rgb(255, 255, 255);&quot;&gt;July 10 1834&lt;/span&gt;&lt;span style=&quot;color: rgb(26, 26, 26); background-color: rgb(255, 255, 255);&quot;&gt;&amp;nbsp;in&amp;nbsp;&lt;/span&gt;&lt;span style=&quot;caret-color: rgb(51, 51, 51); color: rgb(51, 51, 51); font-family: &amp;quot;Helvetica Neue&amp;quot;, Helvetica, Arial, sans-serif; font-size: 15px; letter-spacing: 0.3px; text-align: left; background-color: rgb(255, 255, 255);&quot;&gt;Bristol, Gloucestershire, England&lt;/span&gt;&lt;br&gt;&lt;/div&gt;" style="ellipse;whiteSpace=wrap;html=1;aspect=fixed;" vertex="1" parent="1">
          <mxGeometry x="240" y="-200" width="180" height="180" as="geometry" />
        </mxCell>
        <mxCell id="yw08T7XUyzVqVWOrV2RB-20" style="edgeStyle=orthogonalEdgeStyle;rounded=0;orthogonalLoop=1;jettySize=auto;html=1;exitX=0.5;exitY=1;exitDx=0;exitDy=0;" edge="1" parent="1" source="yw08T7XUyzVqVWOrV2RB-11" target="yw08T7XUyzVqVWOrV2RB-17">
          <mxGeometry relative="1" as="geometry">
            <Array as="points">
              <mxPoint x="77" y="20" />
              <mxPoint x="1326" y="20" />
            </Array>
          </mxGeometry>
        </mxCell>
        <mxCell id="yw08T7XUyzVqVWOrV2RB-23" style="edgeStyle=orthogonalEdgeStyle;rounded=0;orthogonalLoop=1;jettySize=auto;html=1;exitX=0.5;exitY=1;exitDx=0;exitDy=0;entryX=0.5;entryY=0;entryDx=0;entryDy=0;" edge="1" parent="1" source="yw08T7XUyzVqVWOrV2RB-11" target="yw08T7XUyzVqVWOrV2RB-13">
          <mxGeometry relative="1" as="geometry">
            <Array as="points">
              <mxPoint x="77" y="20" />
              <mxPoint x="-1567" y="20" />
            </Array>
          </mxGeometry>
        </mxCell>
        <mxCell id="yw08T7XUyzVqVWOrV2RB-24" style="edgeStyle=orthogonalEdgeStyle;rounded=0;orthogonalLoop=1;jettySize=auto;html=1;exitX=0.5;exitY=1;exitDx=0;exitDy=0;" edge="1" parent="1" source="yw08T7XUyzVqVWOrV2RB-11" target="yw08T7XUyzVqVWOrV2RB-14">
          <mxGeometry relative="1" as="geometry">
            <Array as="points">
              <mxPoint x="77" y="20" />
              <mxPoint x="-1342" y="20" />
            </Array>
          </mxGeometry>
        </mxCell>
        <mxCell id="yw08T7XUyzVqVWOrV2RB-11" value="Biography&amp;nbsp;" style="swimlane;whiteSpace=wrap;html=1;" vertex="1" collapsed="1" parent="1">
          <mxGeometry x="-10" y="-30" width="173" height="20" as="geometry">
            <mxRectangle x="-10" y="-30" width="543" height="120" as="alternateBounds" />
          </mxGeometry>
        </mxCell>
        <mxCell id="yw08T7XUyzVqVWOrV2RB-12" value="&lt;h1 style=&quot;margin-top: 0px; line-height: 60%;&quot;&gt;&lt;p style=&quot;font-weight: 400; margin: 1.5em 0px; padding: 0px; border: 0px; font-stretch: inherit; font-size: 14px; line-height: 60%; font-family: &amp;quot;Open Sans&amp;quot;, Helvetica, Arial, sans-serif; font-size-adjust: inherit; font-kerning: inherit; font-variant-alternates: inherit; font-variant-ligatures: inherit; font-variant-numeric: inherit; font-variant-east-asian: inherit; font-variant-position: inherit; font-feature-settings: inherit; font-optical-sizing: inherit; font-variation-settings: inherit; overflow-wrap: break-word;&quot;&gt;Birth:&amp;nbsp;&lt;span style=&quot;caret-color: rgb(51, 51, 51); color: rgb(51, 51, 51); font-family: &amp;quot;Helvetica Neue&amp;quot;, Helvetica, Arial, sans-serif; font-size: 15px; letter-spacing: 0.3px; background-color: rgb(255, 255, 255);&quot;&gt;1810&amp;nbsp;&lt;/span&gt;&lt;span style=&quot;caret-color: rgb(51, 51, 51); color: rgb(51, 51, 51); font-family: &amp;quot;Helvetica Neue&amp;quot;, Helvetica, Arial, sans-serif; font-size: 15px; letter-spacing: 0.3px;&quot;&gt;Chadleigh, Devon, England&lt;/span&gt;&lt;/p&gt;&lt;p style=&quot;font-weight: 400; margin: 1.5em 0px; padding: 0px; border: 0px; font-stretch: inherit; font-size: 14px; line-height: 60%; font-family: &amp;quot;Open Sans&amp;quot;, Helvetica, Arial, sans-serif; font-size-adjust: inherit; font-kerning: inherit; font-variant-alternates: inherit; font-variant-ligatures: inherit; font-variant-numeric: inherit; font-variant-east-asian: inherit; font-variant-position: inherit; font-feature-settings: inherit; font-optical-sizing: inherit; font-variation-settings: inherit; overflow-wrap: break-word;&quot;&gt;&lt;span style=&quot;caret-color: rgb(51, 51, 51); color: rgb(51, 51, 51); font-family: &amp;quot;Helvetica Neue&amp;quot;, Helvetica, Arial, sans-serif; font-size: 15px; letter-spacing: 0.3px;&quot;&gt;Married&amp;nbsp;&lt;/span&gt;&lt;span style=&quot;caret-color: rgb(51, 51, 51); color: rgb(51, 51, 51); font-family: &amp;quot;Helvetica Neue&amp;quot;, Helvetica, Arial, sans-serif; font-size: 15px; letter-spacing: 0.3px; background-color: rgb(255, 255, 255);&quot;&gt;Susanna LONGHURST&amp;nbsp;&lt;/span&gt;&lt;span style=&quot;letter-spacing: 0.3px; background-color: rgb(255, 255, 255); caret-color: rgb(51, 51, 51); color: rgb(51, 51, 51); font-family: &amp;quot;Helvetica Neue&amp;quot;, Helvetica, Arial, sans-serif; font-size: 15px;&quot;&gt;July 10 1834&lt;/span&gt;&lt;/p&gt;&lt;/h1&gt;" style="text;html=1;whiteSpace=wrap;overflow=hidden;rounded=0;fillColor=default;" vertex="1" parent="yw08T7XUyzVqVWOrV2RB-11">
          <mxGeometry y="30" width="540" height="90" as="geometry" />
        </mxCell>
        <mxCell id="yw08T7XUyzVqVWOrV2RB-13" value="&lt;h1 style=&quot;caret-color: rgb(0, 0, 0); color: rgb(0, 0, 0); font-family: Helvetica; font-style: normal; font-variant-caps: normal; letter-spacing: normal; orphans: auto; text-align: center; text-indent: 0px; text-transform: none; white-space: normal; widows: auto; word-spacing: 0px; -webkit-text-stroke-width: 0px; text-decoration: none; margin: 0px 0px 0.7em; padding: 0px; border: 0px; font-stretch: inherit; line-height: 16px; font-size-adjust: inherit; font-kerning: inherit; font-variant-alternates: inherit; font-variant-ligatures: inherit; font-variant-numeric: inherit; font-variant-east-asian: inherit; font-variant-position: inherit; font-feature-settings: inherit; font-optical-sizing: inherit; font-variation-settings: inherit; overflow-wrap: break-word; font-size: 16px;&quot;&gt;&lt;span style=&quot;caret-color: rgb(51, 51, 51); color: rgb(51, 51, 51); font-family: &amp;quot;Helvetica Neue&amp;quot;, Helvetica, Arial, sans-serif; font-size: 15px; letter-spacing: 0.3px; text-align: left; background-color: rgb(255, 255, 255); font-weight: normal;&quot;&gt;Anne Mary Burcher&lt;/span&gt;&lt;font style=&quot;font-size: 16px;&quot; color=&quot;#1a1a1a&quot; face=&quot;Helvetica&quot;&gt;&amp;nbsp;&lt;/font&gt;&lt;/h1&gt;&lt;h1 style=&quot;font-style: normal; font-variant-caps: normal; letter-spacing: normal; orphans: auto; text-align: center; text-indent: 0px; text-transform: none; white-space: normal; widows: auto; word-spacing: 0px; -webkit-text-stroke-width: 0px; text-decoration: none; margin: 0px 0px 0.7em; padding: 0px; border: 0px; font-stretch: inherit; line-height: 1.4em; font-family: &amp;quot;Open Sans&amp;quot;, Helvetica, Arial, sans-serif; font-size-adjust: inherit; font-kerning: inherit; font-variant-alternates: inherit; font-variant-ligatures: inherit; font-variant-numeric: inherit; font-variant-east-asian: inherit; font-variant-position: inherit; font-feature-settings: inherit; font-optical-sizing: inherit; font-variation-settings: inherit; overflow-wrap: break-word; color: rgb(57, 58, 60); font-size: 16px;&quot;&gt;&lt;span&gt;&amp;nbsp;&lt;span class=&quot;Apple-converted-space&quot;&gt;&amp;nbsp;&lt;/span&gt;&lt;/span&gt;&lt;font style=&quot;font-size: 16px; font-weight: normal;&quot;&gt;&lt;span style=&quot;caret-color: rgb(51, 51, 51); color: rgb(51, 51, 51); font-family: &amp;quot;Helvetica Neue&amp;quot;, Helvetica, Arial, sans-serif; font-size: 15px; letter-spacing: 0.3px; text-align: left; background-color: rgb(255, 255, 255);&quot;&gt;1836&lt;/span&gt;&amp;nbsp;-&amp;nbsp;&lt;/font&gt;&lt;span style=&quot;caret-color: rgb(51, 51, 51); color: rgb(51, 51, 51); font-family: &amp;quot;Helvetica Neue&amp;quot;, Helvetica, Arial, sans-serif; font-size: 15px; letter-spacing: 0.3px; text-align: left; background-color: rgb(255, 255, 255); font-weight: normal;&quot;&gt;1907&lt;/span&gt;&lt;/h1&gt;" style="ellipse;whiteSpace=wrap;html=1;aspect=fixed;" vertex="1" parent="1">
          <mxGeometry x="-1657" y="40" width="180" height="180" as="geometry" />
        </mxCell>
        <mxCell id="yw08T7XUyzVqVWOrV2RB-14" value="&lt;h1 style=&quot;margin: 0px 0px 0.7em; padding: 0px; border: 0px; font-stretch: inherit; line-height: 100%; font-size-adjust: inherit; font-kerning: inherit; font-variant-alternates: inherit; font-variant-ligatures: inherit; font-variant-numeric: inherit; font-variant-east-asian: inherit; font-variant-position: inherit; font-feature-settings: inherit; font-optical-sizing: inherit; font-variation-settings: inherit; overflow-wrap: break-word; font-size: 16px;&quot;&gt;&lt;span style=&quot;font-weight: 400; caret-color: rgb(51, 51, 51); color: rgb(51, 51, 51); font-family: &amp;quot;Helvetica Neue&amp;quot;, Helvetica, Arial, sans-serif; font-size: 15px; letter-spacing: 0.3px; text-align: left; background-color: rgb(255, 255, 255);&quot;&gt;William Charles Burcher&lt;/span&gt;&lt;br&gt;&lt;/h1&gt;&lt;div&gt;&lt;span style=&quot;caret-color: rgb(51, 51, 51); color: rgb(51, 51, 51); font-family: &amp;quot;Helvetica Neue&amp;quot;, Helvetica, Arial, sans-serif; font-size: 15px; letter-spacing: 0.3px; text-align: left; background-color: rgb(255, 255, 255);&quot;&gt;1838 -&amp;nbsp;&lt;/span&gt;&lt;span style=&quot;caret-color: rgb(51, 51, 51); color: rgb(51, 51, 51); font-family: &amp;quot;Helvetica Neue&amp;quot;, Helvetica, Arial, sans-serif; font-size: 15px; letter-spacing: 0.3px; text-align: left; background-color: rgb(255, 255, 255);&quot;&gt;1906&lt;/span&gt;&lt;span style=&quot;font-weight: 400; caret-color: rgb(51, 51, 51); color: rgb(51, 51, 51); font-family: &amp;quot;Helvetica Neue&amp;quot;, Helvetica, Arial, sans-serif; font-size: 15px; letter-spacing: 0.3px; text-align: left; background-color: rgb(255, 255, 255);&quot;&gt;&lt;br&gt;&lt;/span&gt;&lt;/div&gt;" style="whiteSpace=wrap;html=1;aspect=fixed;" vertex="1" parent="1">
          <mxGeometry x="-1427" y="40" width="170" height="170" as="geometry" />
        </mxCell>
        <mxCell id="yw08T7XUyzVqVWOrV2RB-15" value="&lt;h1 style=&quot;margin: 0px 0px 0.7em; padding: 0px; border: 0px; font-stretch: inherit; line-height: 100%; font-size-adjust: inherit; font-kerning: inherit; font-variant-alternates: inherit; font-variant-ligatures: inherit; font-variant-numeric: inherit; font-variant-east-asian: inherit; font-variant-position: inherit; font-feature-settings: inherit; font-optical-sizing: inherit; font-variation-settings: inherit; overflow-wrap: break-word; color: rgb(57, 58, 60); font-size: 16px;&quot;&gt;Thomas Burcher&lt;/h1&gt;&lt;div&gt;&lt;span style=&quot;caret-color: rgb(153, 153, 153); color: rgb(153, 153, 153); font-family: &amp;quot;Helvetica Neue&amp;quot;, Helvetica, Arial, sans-serif; font-size: 13px; letter-spacing: 0.3px; text-align: left; background-color: rgb(255, 255, 255);&quot;&gt;1841 -&amp;nbsp;&lt;/span&gt;&lt;br&gt;&lt;/div&gt;" style="whiteSpace=wrap;html=1;aspect=fixed;" vertex="1" parent="1">
          <mxGeometry x="-1207" y="40" width="170" height="170" as="geometry" />
        </mxCell>
        <mxCell id="yw08T7XUyzVqVWOrV2RB-16" value="&lt;h1 style=&quot;margin: 0px 0px 0.7em; padding: 0px; border: 0px; font-stretch: inherit; line-height: 100%; font-size-adjust: inherit; font-kerning: inherit; font-variant-alternates: inherit; font-variant-ligatures: inherit; font-variant-numeric: inherit; font-variant-east-asian: inherit; font-variant-position: inherit; font-feature-settings: inherit; font-optical-sizing: inherit; font-variation-settings: inherit; overflow-wrap: break-word; color: rgb(57, 58, 60); font-size: 16px;&quot;&gt;&lt;span style=&quot;font-weight: 400; caret-color: rgb(51, 51, 51); color: rgb(51, 51, 51); font-family: &amp;quot;Helvetica Neue&amp;quot;, Helvetica, Arial, sans-serif; font-size: 15px; letter-spacing: 0.3px; text-align: left; background-color: rgb(255, 255, 255);&quot;&gt;Arthur Wellesley Burcher&lt;/span&gt;&lt;br&gt;&lt;/h1&gt;&lt;div&gt;&lt;span style=&quot;caret-color: rgb(51, 51, 51); color: rgb(51, 51, 51); font-family: &amp;quot;Helvetica Neue&amp;quot;, Helvetica, Arial, sans-serif; font-size: 15px; letter-spacing: 0.3px; text-align: left; background-color: rgb(255, 255, 255);&quot;&gt;1842&lt;/span&gt;&lt;span style=&quot;caret-color: rgb(153, 153, 153); color: rgb(153, 153, 153); font-family: &amp;quot;Helvetica Neue&amp;quot;, Helvetica, Arial, sans-serif; font-size: 13px; letter-spacing: 0.3px; text-align: left; background-color: rgb(255, 255, 255);&quot;&gt;&amp;nbsp;- 1908&lt;/span&gt;&lt;br&gt;&lt;/div&gt;" style="whiteSpace=wrap;html=1;aspect=fixed;" vertex="1" parent="1">
          <mxGeometry x="-997" y="40" width="170" height="170" as="geometry" />
        </mxCell>
        <mxCell id="yw08T7XUyzVqVWOrV2RB-17" value="&lt;h1 style=&quot;margin: 0px 0px 0.7em; padding: 0px; border: 0px; font-stretch: inherit; line-height: 100%; font-size-adjust: inherit; font-kerning: inherit; font-variant-alternates: inherit; font-variant-ligatures: inherit; font-variant-numeric: inherit; font-variant-east-asian: inherit; font-variant-position: inherit; font-feature-settings: inherit; font-optical-sizing: inherit; font-variation-settings: inherit; overflow-wrap: break-word; color: rgb(57, 58, 60); font-size: 16px;&quot;&gt;&lt;span style=&quot;font-weight: 400; caret-color: rgb(51, 51, 51); color: rgb(51, 51, 51); font-family: &amp;quot;Helvetica Neue&amp;quot;, Helvetica, Arial, sans-serif; font-size: 15px; letter-spacing: 0.3px; text-align: left; background-color: rgb(255, 255, 255);&quot;&gt;Alfred Burcher&lt;/span&gt;&lt;br&gt;&lt;/h1&gt;&lt;div&gt;&lt;span style=&quot;caret-color: rgb(51, 51, 51); color: rgb(51, 51, 51); font-family: &amp;quot;Helvetica Neue&amp;quot;, Helvetica, Arial, sans-serif; font-size: 15px; letter-spacing: 0.3px; text-align: left; background-color: rgb(255, 255, 255);&quot;&gt;1846&lt;/span&gt;&lt;span style=&quot;caret-color: rgb(153, 153, 153); color: rgb(153, 153, 153); font-family: &amp;quot;Helvetica Neue&amp;quot;, Helvetica, Arial, sans-serif; font-size: 13px; letter-spacing: 0.3px; text-align: left; background-color: rgb(255, 255, 255);&quot;&gt;&amp;nbsp;-&lt;/span&gt;&lt;br&gt;&lt;/div&gt;" style="whiteSpace=wrap;html=1;aspect=fixed;" vertex="1" parent="1">
          <mxGeometry x="1241" y="40" width="170" height="170" as="geometry" />
        </mxCell>
        <mxCell id="yw08T7XUyzVqVWOrV2RB-18" value="&lt;h1 style=&quot;text-align: start; caret-color: rgb(0, 0, 0); font-family: Helvetica; font-style: normal; font-variant-caps: normal; letter-spacing: normal; text-indent: 0px; text-transform: none; white-space: normal; word-spacing: 0px; -webkit-text-stroke-width: 0px; text-decoration: none; margin: 0px 0px 0.7em; padding: 0px; border: 0px; font-stretch: inherit; line-height: 16px; font-size-adjust: inherit; font-kerning: inherit; font-variant-alternates: inherit; font-variant-ligatures: inherit; font-variant-numeric: inherit; font-variant-east-asian: inherit; font-variant-position: inherit; font-feature-settings: inherit; font-optical-sizing: inherit; font-variation-settings: inherit; overflow-wrap: break-word; font-size: 16px;&quot;&gt;&lt;font color=&quot;#393a3c&quot;&gt;Jonna Burcher&lt;/font&gt;&lt;/h1&gt;&lt;div&gt;&lt;span style=&quot;caret-color: rgb(153, 153, 153); color: rgb(153, 153, 153); font-family: &amp;quot;Helvetica Neue&amp;quot;, Helvetica, Arial, sans-serif; font-size: 13px; letter-spacing: 0.3px; text-align: left; background-color: rgb(255, 255, 255);&quot;&gt;1850 -&amp;nbsp;&lt;/span&gt;&lt;font color=&quot;#393a3c&quot;&gt;&lt;br&gt;&lt;/font&gt;&lt;/div&gt;" style="ellipse;whiteSpace=wrap;html=1;aspect=fixed;" vertex="1" parent="1">
          <mxGeometry x="1450" y="35" width="180" height="180" as="geometry" />
        </mxCell>
        <mxCell id="yw08T7XUyzVqVWOrV2RB-19" value="&lt;h1 style=&quot;font-style: normal; font-variant-caps: normal; text-indent: 0px; text-transform: none; white-space: normal; word-spacing: 0px; -webkit-text-stroke-width: 0px; text-decoration: none; margin: 0px 0px 0.7em; padding: 0px; border: 0px; font-stretch: inherit; line-height: 16px; font-size-adjust: inherit; font-kerning: inherit; font-variant-alternates: inherit; font-variant-ligatures: inherit; font-variant-numeric: inherit; font-variant-east-asian: inherit; font-variant-position: inherit; font-feature-settings: inherit; font-optical-sizing: inherit; font-variation-settings: inherit; overflow-wrap: break-word;&quot;&gt;&lt;font size=&quot;3&quot; color=&quot;#393a3c&quot;&gt;&lt;span style=&quot;background-color: rgb(251, 251, 251);&quot;&gt;Thirza Jane Swain (Burcher) Dobson&lt;/span&gt;&lt;/font&gt;&lt;/h1&gt;&lt;h1 style=&quot;font-style: normal; font-variant-caps: normal; text-indent: 0px; text-transform: none; white-space: normal; word-spacing: 0px; -webkit-text-stroke-width: 0px; text-decoration: none; margin: 0px 0px 0.7em; padding: 0px; border: 0px; font-stretch: inherit; line-height: 16px; font-size-adjust: inherit; font-kerning: inherit; font-variant-alternates: inherit; font-variant-ligatures: inherit; font-variant-numeric: inherit; font-variant-east-asian: inherit; font-variant-position: inherit; font-feature-settings: inherit; font-optical-sizing: inherit; font-variation-settings: inherit; overflow-wrap: break-word;&quot;&gt;&lt;font size=&quot;3&quot; color=&quot;#393a3c&quot;&gt;&lt;span style=&quot;background-color: rgb(251, 251, 251);&quot;&gt;&amp;nbsp;&lt;/span&gt;&lt;/font&gt;&lt;span style=&quot;caret-color: rgb(153, 153, 153); font-family: &amp;quot;Helvetica Neue&amp;quot;, Helvetica, Arial, sans-serif; font-size: 13px; letter-spacing: 0.3px; color: rgb(153, 153, 153); background-color: rgb(255, 255, 255); font-weight: normal;&quot;&gt;1851 - 1914&lt;/span&gt;&lt;br&gt;&lt;/h1&gt;" style="ellipse;whiteSpace=wrap;html=1;aspect=fixed;" vertex="1" parent="1">
          <mxGeometry x="1670" y="40" width="180" height="180" as="geometry" />
        </mxCell>
        <mxCell id="yw08T7XUyzVqVWOrV2RB-29" style="edgeStyle=orthogonalEdgeStyle;rounded=0;orthogonalLoop=1;jettySize=auto;html=1;exitX=0.5;exitY=1;exitDx=0;exitDy=0;" edge="1" parent="1" source="yw08T7XUyzVqVWOrV2RB-27" target="yw08T7XUyzVqVWOrV2RB-6">
          <mxGeometry relative="1" as="geometry">
            <Array as="points">
              <mxPoint x="-45" y="-240" />
              <mxPoint x="75" y="-240" />
            </Array>
          </mxGeometry>
        </mxCell>
        <mxCell id="yw08T7XUyzVqVWOrV2RB-27" value="&lt;h1 style=&quot;margin: 0px 0px 0.7em; padding: 0px; border: 0px; font-stretch: inherit; line-height: 100%; font-size-adjust: inherit; font-kerning: inherit; font-variant-alternates: inherit; font-variant-ligatures: inherit; font-variant-numeric: inherit; font-variant-east-asian: inherit; font-variant-position: inherit; font-feature-settings: inherit; font-optical-sizing: inherit; font-variation-settings: inherit; overflow-wrap: break-word; font-size: 16px;&quot;&gt;&lt;font style=&quot;font-size: 16px;&quot; color=&quot;#1a1a1a&quot; face=&quot;Helvetica&quot;&gt;&lt;span style=&quot;margin: 0px; padding: 0px; border: 0px; font-style: inherit; font-variant-caps: inherit; font-stretch: inherit; line-height: inherit; font-size-adjust: inherit; font-kerning: inherit; font-variant-alternates: inherit; font-variant-ligatures: inherit; font-variant-numeric: inherit; font-variant-east-asian: inherit; font-variant-position: inherit; font-feature-settings: inherit; font-optical-sizing: inherit; font-variation-settings: inherit; overflow-wrap: break-word;&quot;&gt;&lt;font style=&quot;font-size: 16px;&quot;&gt;Charles Burcher&lt;/font&gt;&lt;/span&gt;&amp;nbsp;&lt;/font&gt;&lt;/h1&gt;&lt;h1 style=&quot;margin: 0px 0px 0.7em; padding: 0px; border: 0px; font-stretch: inherit; line-height: 100%; font-size-adjust: inherit; font-kerning: inherit; font-variant-alternates: inherit; font-variant-ligatures: inherit; font-variant-numeric: inherit; font-variant-east-asian: inherit; font-variant-position: inherit; font-feature-settings: inherit; font-optical-sizing: inherit; font-variation-settings: inherit; overflow-wrap: break-word; font-size: 16px;&quot;&gt;&lt;span style=&quot;caret-color: rgb(51, 51, 51); color: rgb(51, 51, 51); font-family: &amp;quot;Helvetica Neue&amp;quot;, Helvetica, Arial, sans-serif; font-size: 15px; letter-spacing: 0.3px; text-align: left; background-color: rgb(255, 255, 255); font-weight: normal;&quot;&gt;1783&lt;/span&gt;&lt;span style=&quot;font-weight: normal;&quot;&gt;&lt;font face=&quot;Helvetica&quot; style=&quot;font-size: 16px;&quot; color=&quot;#1a1a1a&quot;&gt;&amp;nbsp;-&amp;nbsp;&lt;/font&gt;&lt;/span&gt;&lt;span style=&quot;caret-color: rgb(51, 51, 51); color: rgb(51, 51, 51); font-family: &amp;quot;Helvetica Neue&amp;quot;, Helvetica, Arial, sans-serif; font-size: 15px; letter-spacing: 0.3px; text-align: left; background-color: rgb(255, 255, 255); font-weight: normal;&quot;&gt;1868&lt;/span&gt;&lt;/h1&gt;&lt;div style=&quot;font-size: 16px; line-height: 100%;&quot;&gt;&lt;span style=&quot;color: rgb(26, 26, 26); background-color: rgb(255, 255, 255);&quot;&gt;Married&amp;nbsp;&lt;/span&gt;&lt;span style=&quot;caret-color: rgb(51, 51, 51); color: rgb(51, 51, 51); font-family: &amp;quot;Helvetica Neue&amp;quot;, Helvetica, Arial, sans-serif; font-size: 15px; letter-spacing: 0.3px; text-align: left; background-color: rgb(255, 255, 255);&quot;&gt;May 26 1805&lt;/span&gt;&lt;span style=&quot;color: rgb(26, 26, 26); background-color: rgb(255, 255, 255);&quot;&gt;&amp;nbsp;in&amp;nbsp;&lt;/span&gt;&lt;span style=&quot;caret-color: rgb(51, 51, 51); color: rgb(51, 51, 51); font-family: &amp;quot;Helvetica Neue&amp;quot;, Helvetica, Arial, sans-serif; font-size: 15px; letter-spacing: 0.3px; text-align: left; background-color: rgb(255, 255, 255);&quot;&gt;Slindon, Sussex, England&lt;/span&gt;&lt;span style=&quot;font-size: 23px; font-family: qMxfg6gYd-HVo0lsF2Li; font-weight: normal;&quot;&gt;&lt;font style=&quot;font-size: 16px;&quot;&gt;&lt;br&gt;&lt;/font&gt;&lt;/span&gt;&lt;/div&gt;" style="whiteSpace=wrap;html=1;aspect=fixed;" vertex="1" parent="1">
          <mxGeometry x="-130" y="-440" width="170" height="170" as="geometry" />
        </mxCell>
        <mxCell id="yw08T7XUyzVqVWOrV2RB-31" style="edgeStyle=orthogonalEdgeStyle;rounded=0;orthogonalLoop=1;jettySize=auto;html=1;exitX=0.5;exitY=1;exitDx=0;exitDy=0;entryX=0.5;entryY=0;entryDx=0;entryDy=0;" edge="1" parent="1" source="yw08T7XUyzVqVWOrV2RB-28" target="yw08T7XUyzVqVWOrV2RB-6">
          <mxGeometry relative="1" as="geometry">
            <Array as="points">
              <mxPoint x="210" y="-240" />
              <mxPoint x="75" y="-240" />
            </Array>
          </mxGeometry>
        </mxCell>
        <mxCell id="yw08T7XUyzVqVWOrV2RB-28" value="&lt;h1 style=&quot;caret-color: rgb(0, 0, 0); color: rgb(0, 0, 0); font-family: Helvetica; font-style: normal; font-variant-caps: normal; letter-spacing: normal; orphans: auto; text-align: center; text-indent: 0px; text-transform: none; white-space: normal; widows: auto; word-spacing: 0px; -webkit-text-stroke-width: 0px; text-decoration: none; margin: 0px 0px 0.7em; padding: 0px; border: 0px; font-stretch: inherit; line-height: 16px; font-size-adjust: inherit; font-kerning: inherit; font-variant-alternates: inherit; font-variant-ligatures: inherit; font-variant-numeric: inherit; font-variant-east-asian: inherit; font-variant-position: inherit; font-feature-settings: inherit; font-optical-sizing: inherit; font-variation-settings: inherit; overflow-wrap: break-word; font-size: 16px;&quot;&gt;&lt;span style=&quot;font-family: inherit; font-size: inherit; font-style: inherit; font-variant-caps: inherit; font-weight: inherit; color: rgb(57, 58, 60); text-align: start;&quot;&gt;Mary (Rogers)&lt;/span&gt;&lt;font style=&quot;font-size: 16px;&quot; color=&quot;#1a1a1a&quot; face=&quot;Helvetica&quot;&gt;&lt;span style=&quot;margin: 0px; padding: 0px; border: 0px; font-style: inherit; font-variant-caps: inherit; font-stretch: inherit; line-height: inherit; font-size-adjust: inherit; font-kerning: inherit; font-variant-alternates: inherit; font-variant-ligatures: inherit; font-variant-numeric: inherit; font-variant-east-asian: inherit; font-variant-position: inherit; font-feature-settings: inherit; font-optical-sizing: inherit; font-variation-settings: inherit; overflow-wrap: break-word;&quot;&gt;&lt;font style=&quot;font-size: 16px;&quot;&gt;&amp;nbsp;Burcher&lt;/font&gt;&lt;/span&gt;&amp;nbsp;&lt;/font&gt;&lt;/h1&gt;&lt;h1 style=&quot;font-style: normal; font-variant-caps: normal; letter-spacing: normal; orphans: auto; text-align: center; text-indent: 0px; text-transform: none; white-space: normal; widows: auto; word-spacing: 0px; -webkit-text-stroke-width: 0px; text-decoration: none; margin: 0px 0px 0.7em; padding: 0px; border: 0px; font-stretch: inherit; line-height: 1.4em; font-family: &amp;quot;Open Sans&amp;quot;, Helvetica, Arial, sans-serif; font-size-adjust: inherit; font-kerning: inherit; font-variant-alternates: inherit; font-variant-ligatures: inherit; font-variant-numeric: inherit; font-variant-east-asian: inherit; font-variant-position: inherit; font-feature-settings: inherit; font-optical-sizing: inherit; font-variation-settings: inherit; overflow-wrap: break-word; color: rgb(57, 58, 60); font-size: 16px;&quot;&gt;&lt;span&gt;&amp;nbsp;&lt;span class=&quot;Apple-converted-space&quot;&gt;&amp;nbsp;&lt;/span&gt;&lt;/span&gt;&lt;font style=&quot;font-size: 16px; font-weight: normal;&quot;&gt;&lt;span style=&quot;caret-color: rgb(51, 51, 51); color: rgb(51, 51, 51); font-family: &amp;quot;Helvetica Neue&amp;quot;, Helvetica, Arial, sans-serif; font-size: 15px; letter-spacing: 0.3px; text-align: left; background-color: rgb(255, 255, 255);&quot;&gt;1785&lt;/span&gt;&amp;nbsp;- 1873&lt;/font&gt;&lt;/h1&gt;&lt;div style=&quot;caret-color: rgb(0, 0, 0); color: rgb(0, 0, 0); font-family: Helvetica; font-style: normal; font-variant-caps: normal; font-weight: 400; letter-spacing: normal; orphans: auto; text-align: center; text-indent: 0px; text-transform: none; white-space: normal; widows: auto; word-spacing: 0px; -webkit-text-stroke-width: 0px; text-decoration: none; font-size: 16px;&quot;&gt;&lt;span style=&quot;color: rgb(26, 26, 26); background-color: rgb(255, 255, 255);&quot;&gt;Married&amp;nbsp;&lt;/span&gt;&lt;span style=&quot;caret-color: rgb(51, 51, 51); color: rgb(51, 51, 51); font-family: &amp;quot;Helvetica Neue&amp;quot;, Helvetica, Arial, sans-serif; font-size: 15px; letter-spacing: 0.3px; text-align: left; background-color: rgb(255, 255, 255);&quot;&gt;May 26 1805&lt;/span&gt;&lt;span style=&quot;color: rgb(26, 26, 26); background-color: rgb(255, 255, 255);&quot;&gt;&amp;nbsp;in&amp;nbsp;&lt;/span&gt;&lt;span style=&quot;caret-color: rgb(51, 51, 51); color: rgb(51, 51, 51); font-family: &amp;quot;Helvetica Neue&amp;quot;, Helvetica, Arial, sans-serif; font-size: 15px; letter-spacing: 0.3px; text-align: left; background-color: rgb(255, 255, 255);&quot;&gt;Slindon, Sussex, England&lt;/span&gt;&lt;br&gt;&lt;/div&gt;" style="ellipse;whiteSpace=wrap;html=1;aspect=fixed;" vertex="1" parent="1">
          <mxGeometry x="120" y="-445" width="180" height="180" as="geometry" />
        </mxCell>
        <mxCell id="yw08T7XUyzVqVWOrV2RB-34" style="edgeStyle=orthogonalEdgeStyle;rounded=0;orthogonalLoop=1;jettySize=auto;html=1;exitX=0.5;exitY=1;exitDx=0;exitDy=0;" edge="1" parent="1" source="yw08T7XUyzVqVWOrV2RB-32" target="yw08T7XUyzVqVWOrV2RB-27">
          <mxGeometry relative="1" as="geometry">
            <Array as="points">
              <mxPoint x="-175" y="-470" />
              <mxPoint x="-45" y="-470" />
            </Array>
          </mxGeometry>
        </mxCell>
        <mxCell id="yw08T7XUyzVqVWOrV2RB-32" value="&lt;h1 style=&quot;margin: 0px 0px 0.7em; padding: 0px; border: 0px; font-stretch: inherit; line-height: 100%; font-size-adjust: inherit; font-kerning: inherit; font-variant-alternates: inherit; font-variant-ligatures: inherit; font-variant-numeric: inherit; font-variant-east-asian: inherit; font-variant-position: inherit; font-feature-settings: inherit; font-optical-sizing: inherit; font-variation-settings: inherit; overflow-wrap: break-word; font-size: 16px;&quot;&gt;&lt;font style=&quot;font-size: 16px;&quot; color=&quot;#1a1a1a&quot; face=&quot;Helvetica&quot;&gt;&lt;span style=&quot;margin: 0px; padding: 0px; border: 0px; font-style: inherit; font-variant-caps: inherit; font-stretch: inherit; line-height: inherit; font-size-adjust: inherit; font-kerning: inherit; font-variant-alternates: inherit; font-variant-ligatures: inherit; font-variant-numeric: inherit; font-variant-east-asian: inherit; font-variant-position: inherit; font-feature-settings: inherit; font-optical-sizing: inherit; font-variation-settings: inherit; overflow-wrap: break-word;&quot;&gt;&lt;font style=&quot;font-size: 16px;&quot;&gt;William Burcher&lt;/font&gt;&lt;/span&gt;&amp;nbsp;&lt;/font&gt;&lt;/h1&gt;&lt;h1 style=&quot;margin: 0px 0px 0.7em; padding: 0px; border: 0px; font-stretch: inherit; line-height: 100%; font-size-adjust: inherit; font-kerning: inherit; font-variant-alternates: inherit; font-variant-ligatures: inherit; font-variant-numeric: inherit; font-variant-east-asian: inherit; font-variant-position: inherit; font-feature-settings: inherit; font-optical-sizing: inherit; font-variation-settings: inherit; overflow-wrap: break-word; font-size: 16px;&quot;&gt;&lt;span style=&quot;caret-color: rgb(51, 51, 51); color: rgb(51, 51, 51); font-family: &amp;quot;Helvetica Neue&amp;quot;, Helvetica, Arial, sans-serif; font-size: 15px; letter-spacing: 0.3px; text-align: left; background-color: rgb(255, 255, 255); font-weight: normal;&quot;&gt;1750&lt;/span&gt;&lt;span style=&quot;font-weight: normal;&quot;&gt;&lt;font face=&quot;Helvetica&quot; style=&quot;font-size: 16px;&quot; color=&quot;#1a1a1a&quot;&gt;&amp;nbsp;-&amp;nbsp;&lt;/font&gt;&lt;/span&gt;&lt;span style=&quot;caret-color: rgb(51, 51, 51); color: rgb(51, 51, 51); font-family: &amp;quot;Helvetica Neue&amp;quot;, Helvetica, Arial, sans-serif; font-size: 15px; letter-spacing: 0.3px; text-align: left; background-color: rgb(255, 255, 255); font-weight: normal;&quot;&gt;1838&lt;/span&gt;&lt;/h1&gt;&lt;div style=&quot;font-size: 16px; line-height: 100%;&quot;&gt;&lt;span style=&quot;color: rgb(26, 26, 26); background-color: rgb(255, 255, 255);&quot;&gt;Married&amp;nbsp;&lt;/span&gt;&lt;span style=&quot;caret-color: rgb(51, 51, 51); color: rgb(51, 51, 51); font-family: &amp;quot;Helvetica Neue&amp;quot;, Helvetica, Arial, sans-serif; font-size: 15px; letter-spacing: 0.3px; text-align: left; background-color: rgb(255, 255, 255);&quot;&gt;June 8 1770&lt;/span&gt;&lt;span style=&quot;color: rgb(26, 26, 26); background-color: rgb(255, 255, 255);&quot;&gt;&amp;nbsp;in&amp;nbsp;&lt;/span&gt;&lt;span style=&quot;caret-color: rgb(51, 51, 51); color: rgb(51, 51, 51); font-family: &amp;quot;Helvetica Neue&amp;quot;, Helvetica, Arial, sans-serif; font-size: 15px; letter-spacing: 0.3px; text-align: left; background-color: rgb(255, 255, 255);&quot;&gt;Slindon, Sussex, England&lt;/span&gt;&lt;span style=&quot;font-size: 23px; font-family: qMxfg6gYd-HVo0lsF2Li; font-weight: normal;&quot;&gt;&lt;font style=&quot;font-size: 16px;&quot;&gt;&lt;br&gt;&lt;/font&gt;&lt;/span&gt;&lt;/div&gt;" style="whiteSpace=wrap;html=1;aspect=fixed;" vertex="1" parent="1">
          <mxGeometry x="-260" y="-675" width="170" height="170" as="geometry" />
        </mxCell>
        <mxCell id="yw08T7XUyzVqVWOrV2RB-35" style="edgeStyle=orthogonalEdgeStyle;rounded=0;orthogonalLoop=1;jettySize=auto;html=1;exitX=0.5;exitY=1;exitDx=0;exitDy=0;entryX=0.5;entryY=0;entryDx=0;entryDy=0;" edge="1" parent="1" source="yw08T7XUyzVqVWOrV2RB-33" target="yw08T7XUyzVqVWOrV2RB-27">
          <mxGeometry relative="1" as="geometry">
            <Array as="points">
              <mxPoint x="80" y="-470" />
              <mxPoint x="-45" y="-470" />
            </Array>
          </mxGeometry>
        </mxCell>
        <mxCell id="yw08T7XUyzVqVWOrV2RB-33" value="&lt;h1 style=&quot;caret-color: rgb(0, 0, 0); color: rgb(0, 0, 0); font-family: Helvetica; font-style: normal; font-variant-caps: normal; letter-spacing: normal; orphans: auto; text-align: center; text-indent: 0px; text-transform: none; white-space: normal; widows: auto; word-spacing: 0px; -webkit-text-stroke-width: 0px; text-decoration: none; margin: 0px 0px 0.7em; padding: 0px; border: 0px; font-stretch: inherit; line-height: 16px; font-size-adjust: inherit; font-kerning: inherit; font-variant-alternates: inherit; font-variant-ligatures: inherit; font-variant-numeric: inherit; font-variant-east-asian: inherit; font-variant-position: inherit; font-feature-settings: inherit; font-optical-sizing: inherit; font-variation-settings: inherit; overflow-wrap: break-word; font-size: 16px;&quot;&gt;&lt;span style=&quot;font-family: inherit; font-size: inherit; font-style: inherit; font-variant-caps: inherit; font-weight: inherit; color: rgb(57, 58, 60); text-align: start;&quot;&gt;Jane (Bowley)&lt;/span&gt;&lt;font style=&quot;font-size: 16px;&quot; color=&quot;#1a1a1a&quot; face=&quot;Helvetica&quot;&gt;&lt;span style=&quot;margin: 0px; padding: 0px; border: 0px; font-style: inherit; font-variant-caps: inherit; font-stretch: inherit; line-height: inherit; font-size-adjust: inherit; font-kerning: inherit; font-variant-alternates: inherit; font-variant-ligatures: inherit; font-variant-numeric: inherit; font-variant-east-asian: inherit; font-variant-position: inherit; font-feature-settings: inherit; font-optical-sizing: inherit; font-variation-settings: inherit; overflow-wrap: break-word;&quot;&gt;&lt;font style=&quot;font-size: 16px;&quot;&gt;&amp;nbsp;Burcher&lt;/font&gt;&lt;/span&gt;&amp;nbsp;&lt;/font&gt;&lt;/h1&gt;&lt;h1 style=&quot;font-style: normal; font-variant-caps: normal; letter-spacing: normal; orphans: auto; text-align: center; text-indent: 0px; text-transform: none; white-space: normal; widows: auto; word-spacing: 0px; -webkit-text-stroke-width: 0px; text-decoration: none; margin: 0px 0px 0.7em; padding: 0px; border: 0px; font-stretch: inherit; line-height: 1.4em; font-family: &amp;quot;Open Sans&amp;quot;, Helvetica, Arial, sans-serif; font-size-adjust: inherit; font-kerning: inherit; font-variant-alternates: inherit; font-variant-ligatures: inherit; font-variant-numeric: inherit; font-variant-east-asian: inherit; font-variant-position: inherit; font-feature-settings: inherit; font-optical-sizing: inherit; font-variation-settings: inherit; overflow-wrap: break-word; color: rgb(57, 58, 60); font-size: 16px;&quot;&gt;&lt;span&gt;&amp;nbsp;&lt;span class=&quot;Apple-converted-space&quot;&gt;&amp;nbsp;&lt;/span&gt;&lt;/span&gt;&lt;font style=&quot;font-size: 16px; font-weight: normal;&quot;&gt;&lt;span style=&quot;caret-color: rgb(51, 51, 51); color: rgb(51, 51, 51); font-family: &amp;quot;Helvetica Neue&amp;quot;, Helvetica, Arial, sans-serif; font-size: 15px; letter-spacing: 0.3px; text-align: left; background-color: rgb(255, 255, 255);&quot;&gt;1749&lt;/span&gt;&amp;nbsp;- 1838&lt;/font&gt;&lt;/h1&gt;&lt;div style=&quot;caret-color: rgb(0, 0, 0); color: rgb(0, 0, 0); font-family: Helvetica; font-style: normal; font-variant-caps: normal; font-weight: 400; letter-spacing: normal; orphans: auto; text-align: center; text-indent: 0px; text-transform: none; white-space: normal; widows: auto; word-spacing: 0px; -webkit-text-stroke-width: 0px; text-decoration: none; font-size: 16px;&quot;&gt;&lt;span style=&quot;color: rgb(26, 26, 26); background-color: rgb(255, 255, 255);&quot;&gt;Married&amp;nbsp;&lt;/span&gt;&lt;span style=&quot;caret-color: rgb(51, 51, 51); color: rgb(51, 51, 51); font-family: &amp;quot;Helvetica Neue&amp;quot;, Helvetica, Arial, sans-serif; font-size: 15px; letter-spacing: 0.3px; text-align: left; background-color: rgb(255, 255, 255);&quot;&gt;June 8 1770&lt;/span&gt;&lt;span style=&quot;color: rgb(26, 26, 26); background-color: rgb(255, 255, 255);&quot;&gt;&amp;nbsp;in&amp;nbsp;&lt;/span&gt;&lt;span style=&quot;caret-color: rgb(51, 51, 51); color: rgb(51, 51, 51); font-family: &amp;quot;Helvetica Neue&amp;quot;, Helvetica, Arial, sans-serif; font-size: 15px; letter-spacing: 0.3px; text-align: left; background-color: rgb(255, 255, 255);&quot;&gt;Slindon, Sussex, England&lt;/span&gt;&lt;br&gt;&lt;/div&gt;" style="ellipse;whiteSpace=wrap;html=1;aspect=fixed;" vertex="1" parent="1">
          <mxGeometry x="-10" y="-680" width="180" height="180" as="geometry" />
        </mxCell>
        <mxCell id="yw08T7XUyzVqVWOrV2RB-38" style="edgeStyle=orthogonalEdgeStyle;rounded=0;orthogonalLoop=1;jettySize=auto;html=1;exitX=0.5;exitY=1;exitDx=0;exitDy=0;entryX=0.5;entryY=0;entryDx=0;entryDy=0;" edge="1" parent="1" source="yw08T7XUyzVqVWOrV2RB-36" target="yw08T7XUyzVqVWOrV2RB-32">
          <mxGeometry relative="1" as="geometry" />
        </mxCell>
        <mxCell id="yw08T7XUyzVqVWOrV2RB-36" value="&lt;h1 style=&quot;margin: 0px 0px 0.7em; padding: 0px; border: 0px; font-stretch: inherit; line-height: 100%; font-size-adjust: inherit; font-kerning: inherit; font-variant-alternates: inherit; font-variant-ligatures: inherit; font-variant-numeric: inherit; font-variant-east-asian: inherit; font-variant-position: inherit; font-feature-settings: inherit; font-optical-sizing: inherit; font-variation-settings: inherit; overflow-wrap: break-word; font-size: 16px;&quot;&gt;&lt;font style=&quot;font-size: 16px;&quot; color=&quot;#1a1a1a&quot; face=&quot;Helvetica&quot;&gt;&lt;span style=&quot;margin: 0px; padding: 0px; border: 0px; font-style: inherit; font-variant-caps: inherit; font-stretch: inherit; line-height: inherit; font-size-adjust: inherit; font-kerning: inherit; font-variant-alternates: inherit; font-variant-ligatures: inherit; font-variant-numeric: inherit; font-variant-east-asian: inherit; font-variant-position: inherit; font-feature-settings: inherit; font-optical-sizing: inherit; font-variation-settings: inherit; overflow-wrap: break-word;&quot;&gt;&lt;font style=&quot;font-size: 16px;&quot;&gt;Rober Burcher&lt;/font&gt;&lt;/span&gt;&amp;nbsp;&lt;/font&gt;&lt;/h1&gt;&lt;h1 style=&quot;margin: 0px 0px 0.7em; padding: 0px; border: 0px; font-stretch: inherit; line-height: 100%; font-size-adjust: inherit; font-kerning: inherit; font-variant-alternates: inherit; font-variant-ligatures: inherit; font-variant-numeric: inherit; font-variant-east-asian: inherit; font-variant-position: inherit; font-feature-settings: inherit; font-optical-sizing: inherit; font-variation-settings: inherit; overflow-wrap: break-word; font-size: 16px;&quot;&gt;&lt;span style=&quot;caret-color: rgb(51, 51, 51); color: rgb(51, 51, 51); font-family: &amp;quot;Helvetica Neue&amp;quot;, Helvetica, Arial, sans-serif; font-size: 15px; letter-spacing: 0.3px; text-align: left; background-color: rgb(255, 255, 255); font-weight: normal;&quot;&gt;1705&lt;/span&gt;&lt;span style=&quot;font-weight: normal;&quot;&gt;&lt;font face=&quot;Helvetica&quot; style=&quot;font-size: 16px;&quot; color=&quot;#1a1a1a&quot;&gt;&amp;nbsp;-&lt;/font&gt;&lt;/span&gt;&lt;/h1&gt;&lt;div&gt;&lt;span style=&quot;font-size: 16px; color: rgb(26, 26, 26); background-color: rgb(255, 255, 255);&quot;&gt;Married&amp;nbsp;&lt;/span&gt;&lt;span style=&quot;caret-color: rgb(51, 51, 51); color: rgb(51, 51, 51); font-family: &amp;quot;Helvetica Neue&amp;quot;, Helvetica, Arial, sans-serif; font-size: 15px; letter-spacing: 0.3px; text-align: left; background-color: rgb(255, 255, 255);&quot;&gt;Oct 8 1730&lt;/span&gt;&lt;span style=&quot;font-size: 16px; color: rgb(26, 26, 26); background-color: rgb(255, 255, 255);&quot;&gt;&amp;nbsp;in&amp;nbsp;&lt;/span&gt;&lt;span style=&quot;caret-color: rgb(51, 51, 51); color: rgb(51, 51, 51); font-family: &amp;quot;Helvetica Neue&amp;quot;, Helvetica, Arial, sans-serif; font-size: 15px; letter-spacing: 0.3px; text-align: left; background-color: rgb(255, 255, 255);&quot;&gt;Aldingbourne, Sussex, England&lt;/span&gt;&lt;span style=&quot;font-weight: normal;&quot;&gt;&lt;font face=&quot;Helvetica&quot; style=&quot;font-size: 16px;&quot; color=&quot;#1a1a1a&quot;&gt;&lt;br&gt;&lt;/font&gt;&lt;/span&gt;&lt;/div&gt;&lt;div style=&quot;font-size: 16px; line-height: 100%;&quot;&gt;&lt;span style=&quot;font-size: 23px; font-family: qMxfg6gYd-HVo0lsF2Li; font-weight: normal;&quot;&gt;&lt;font style=&quot;font-size: 16px;&quot;&gt;&lt;br&gt;&lt;/font&gt;&lt;/span&gt;&lt;/div&gt;" style="whiteSpace=wrap;html=1;aspect=fixed;" vertex="1" parent="1">
          <mxGeometry x="-390" y="-915" width="170" height="170" as="geometry" />
        </mxCell>
        <mxCell id="yw08T7XUyzVqVWOrV2RB-40" style="edgeStyle=orthogonalEdgeStyle;rounded=0;orthogonalLoop=1;jettySize=auto;html=1;exitX=0.5;exitY=1;exitDx=0;exitDy=0;entryX=0.5;entryY=0;entryDx=0;entryDy=0;" edge="1" parent="1" source="yw08T7XUyzVqVWOrV2RB-37" target="yw08T7XUyzVqVWOrV2RB-32">
          <mxGeometry relative="1" as="geometry">
            <Array as="points">
              <mxPoint x="-50" y="-710" />
              <mxPoint x="-175" y="-710" />
            </Array>
          </mxGeometry>
        </mxCell>
        <mxCell id="yw08T7XUyzVqVWOrV2RB-37" value="&lt;h1 style=&quot;caret-color: rgb(0, 0, 0); color: rgb(0, 0, 0); font-family: Helvetica; font-style: normal; font-variant-caps: normal; letter-spacing: normal; orphans: auto; text-align: center; text-indent: 0px; text-transform: none; white-space: normal; widows: auto; word-spacing: 0px; -webkit-text-stroke-width: 0px; text-decoration: none; margin: 0px 0px 0.7em; padding: 0px; border: 0px; font-stretch: inherit; line-height: 16px; font-size-adjust: inherit; font-kerning: inherit; font-variant-alternates: inherit; font-variant-ligatures: inherit; font-variant-numeric: inherit; font-variant-east-asian: inherit; font-variant-position: inherit; font-feature-settings: inherit; font-optical-sizing: inherit; font-variation-settings: inherit; overflow-wrap: break-word; font-size: 16px;&quot;&gt;&lt;span style=&quot;font-family: inherit; font-size: inherit; font-style: inherit; font-variant-caps: inherit; font-weight: inherit; color: rgb(57, 58, 60); text-align: start;&quot;&gt;Ann (Apps)&lt;/span&gt;&lt;font style=&quot;font-size: 16px;&quot; color=&quot;#1a1a1a&quot; face=&quot;Helvetica&quot;&gt;&lt;span style=&quot;margin: 0px; padding: 0px; border: 0px; font-style: inherit; font-variant-caps: inherit; font-stretch: inherit; line-height: inherit; font-size-adjust: inherit; font-kerning: inherit; font-variant-alternates: inherit; font-variant-ligatures: inherit; font-variant-numeric: inherit; font-variant-east-asian: inherit; font-variant-position: inherit; font-feature-settings: inherit; font-optical-sizing: inherit; font-variation-settings: inherit; overflow-wrap: break-word;&quot;&gt;&lt;font style=&quot;font-size: 16px;&quot;&gt;&amp;nbsp;Burcher&lt;/font&gt;&lt;/span&gt;&amp;nbsp;&lt;/font&gt;&lt;/h1&gt;&lt;h1 style=&quot;font-style: normal; font-variant-caps: normal; letter-spacing: normal; orphans: auto; text-align: center; text-indent: 0px; text-transform: none; white-space: normal; widows: auto; word-spacing: 0px; -webkit-text-stroke-width: 0px; text-decoration: none; margin: 0px 0px 0.7em; padding: 0px; border: 0px; font-stretch: inherit; line-height: 1.4em; font-family: &amp;quot;Open Sans&amp;quot;, Helvetica, Arial, sans-serif; font-size-adjust: inherit; font-kerning: inherit; font-variant-alternates: inherit; font-variant-ligatures: inherit; font-variant-numeric: inherit; font-variant-east-asian: inherit; font-variant-position: inherit; font-feature-settings: inherit; font-optical-sizing: inherit; font-variation-settings: inherit; overflow-wrap: break-word; color: rgb(57, 58, 60); font-size: 16px;&quot;&gt;&lt;span&gt;&amp;nbsp;&lt;span class=&quot;Apple-converted-space&quot;&gt;&amp;nbsp;&lt;/span&gt;&lt;/span&gt;&lt;font style=&quot;font-size: 16px; font-weight: normal;&quot;&gt;&lt;span style=&quot;caret-color: rgb(51, 51, 51); color: rgb(51, 51, 51); font-family: &amp;quot;Helvetica Neue&amp;quot;, Helvetica, Arial, sans-serif; font-size: 15px; letter-spacing: 0.3px; text-align: left; background-color: rgb(255, 255, 255);&quot;&gt;1715&lt;/span&gt;&amp;nbsp;- 1750&lt;/font&gt;&lt;/h1&gt;&lt;div&gt;&lt;font style=&quot;font-size: 16px; font-weight: normal;&quot;&gt;&lt;div style=&quot;font-size: 12px;&quot;&gt;&lt;span style=&quot;font-size: 16px; color: rgb(26, 26, 26); background-color: rgb(255, 255, 255);&quot;&gt;Married&amp;nbsp;&lt;/span&gt;&lt;span style=&quot;caret-color: rgb(51, 51, 51); color: rgb(51, 51, 51); font-family: &amp;quot;Helvetica Neue&amp;quot;, Helvetica, Arial, sans-serif; font-size: 15px; letter-spacing: 0.3px; text-align: left; background-color: rgb(255, 255, 255);&quot;&gt;Oct 8 1730&lt;/span&gt;&lt;span style=&quot;font-size: 16px; color: rgb(26, 26, 26); background-color: rgb(255, 255, 255);&quot;&gt;&amp;nbsp;in&amp;nbsp;&lt;/span&gt;&lt;span style=&quot;caret-color: rgb(51, 51, 51); color: rgb(51, 51, 51); font-family: &amp;quot;Helvetica Neue&amp;quot;, Helvetica, Arial, sans-serif; font-size: 15px; letter-spacing: 0.3px; text-align: left; background-color: rgb(255, 255, 255);&quot;&gt;Aldingbourne, Sussex, England&lt;/span&gt;&lt;font style=&quot;font-size: 16px;&quot; face=&quot;Helvetica&quot; color=&quot;#1a1a1a&quot;&gt;&lt;br&gt;&lt;/font&gt;&lt;/div&gt;&lt;div&gt;&lt;span style=&quot;caret-color: rgb(51, 51, 51); color: rgb(51, 51, 51); font-family: &amp;quot;Helvetica Neue&amp;quot;, Helvetica, Arial, sans-serif; font-size: 15px; letter-spacing: 0.3px; text-align: left; background-color: rgb(255, 255, 255);&quot;&gt;&lt;br&gt;&lt;/span&gt;&lt;/div&gt;&lt;/font&gt;&lt;/div&gt;&lt;div style=&quot;caret-color: rgb(0, 0, 0); color: rgb(0, 0, 0); font-family: Helvetica; font-style: normal; font-variant-caps: normal; font-weight: 400; letter-spacing: normal; orphans: auto; text-align: center; text-indent: 0px; text-transform: none; white-space: normal; widows: auto; word-spacing: 0px; -webkit-text-stroke-width: 0px; text-decoration: none; font-size: 16px;&quot;&gt;&lt;br&gt;&lt;/div&gt;" style="ellipse;whiteSpace=wrap;html=1;aspect=fixed;" vertex="1" parent="1">
          <mxGeometry x="-140" y="-920" width="180" height="180" as="geometry" />
        </mxCell>
        <mxCell id="yw08T7XUyzVqVWOrV2RB-43" style="edgeStyle=orthogonalEdgeStyle;rounded=0;orthogonalLoop=1;jettySize=auto;html=1;exitX=0.5;exitY=1;exitDx=0;exitDy=0;" edge="1" parent="1" source="yw08T7XUyzVqVWOrV2RB-41" target="yw08T7XUyzVqVWOrV2RB-36">
          <mxGeometry relative="1" as="geometry" />
        </mxCell>
        <mxCell id="yw08T7XUyzVqVWOrV2RB-41" value="&lt;h1 style=&quot;margin: 0px 0px 0.7em; padding: 0px; border: 0px; font-stretch: inherit; line-height: 100%; font-size-adjust: inherit; font-kerning: inherit; font-variant-alternates: inherit; font-variant-ligatures: inherit; font-variant-numeric: inherit; font-variant-east-asian: inherit; font-variant-position: inherit; font-feature-settings: inherit; font-optical-sizing: inherit; font-variation-settings: inherit; overflow-wrap: break-word; font-size: 16px;&quot;&gt;&lt;font style=&quot;font-size: 16px;&quot; color=&quot;#1a1a1a&quot; face=&quot;Helvetica&quot;&gt;&lt;span style=&quot;margin: 0px; padding: 0px; border: 0px; font-style: inherit; font-variant-caps: inherit; font-stretch: inherit; line-height: inherit; font-size-adjust: inherit; font-kerning: inherit; font-variant-alternates: inherit; font-variant-ligatures: inherit; font-variant-numeric: inherit; font-variant-east-asian: inherit; font-variant-position: inherit; font-feature-settings: inherit; font-optical-sizing: inherit; font-variation-settings: inherit; overflow-wrap: break-word;&quot;&gt;&lt;font style=&quot;font-size: 16px;&quot;&gt;John Burcher&lt;/font&gt;&lt;/span&gt;&amp;nbsp;&lt;/font&gt;&lt;/h1&gt;&lt;h1 style=&quot;margin: 0px 0px 0.7em; padding: 0px; border: 0px; font-stretch: inherit; line-height: 100%; font-size-adjust: inherit; font-kerning: inherit; font-variant-alternates: inherit; font-variant-ligatures: inherit; font-variant-numeric: inherit; font-variant-east-asian: inherit; font-variant-position: inherit; font-feature-settings: inherit; font-optical-sizing: inherit; font-variation-settings: inherit; overflow-wrap: break-word; font-size: 16px;&quot;&gt;&lt;span style=&quot;caret-color: rgb(51, 51, 51); color: rgb(51, 51, 51); font-family: &amp;quot;Helvetica Neue&amp;quot;, Helvetica, Arial, sans-serif; font-size: 15px; letter-spacing: 0.3px; text-align: left; background-color: rgb(255, 255, 255); font-weight: normal;&quot;&gt;1662&lt;/span&gt;&lt;span style=&quot;font-weight: normal;&quot;&gt;&lt;font face=&quot;Helvetica&quot; style=&quot;font-size: 16px;&quot; color=&quot;#1a1a1a&quot;&gt;&amp;nbsp;-&amp;nbsp;&lt;/font&gt;&lt;/span&gt;&lt;span style=&quot;caret-color: rgb(51, 51, 51); color: rgb(51, 51, 51); font-family: &amp;quot;Helvetica Neue&amp;quot;, Helvetica, Arial, sans-serif; font-size: 15px; letter-spacing: 0.3px; text-align: left; background-color: rgb(255, 255, 255); font-weight: normal;&quot;&gt;1733&lt;/span&gt;&lt;/h1&gt;&lt;div style=&quot;font-size: 16px; line-height: 100%;&quot;&gt;&lt;span style=&quot;font-size: 23px; font-family: qMxfg6gYd-HVo0lsF2Li; font-weight: normal;&quot;&gt;&lt;font style=&quot;font-size: 16px;&quot;&gt;&lt;br&gt;&lt;/font&gt;&lt;/span&gt;&lt;/div&gt;" style="whiteSpace=wrap;html=1;aspect=fixed;" vertex="1" parent="1">
          <mxGeometry x="-510" y="-1135" width="170" height="170" as="geometry" />
        </mxCell>
        <mxCell id="yw08T7XUyzVqVWOrV2RB-44" style="edgeStyle=orthogonalEdgeStyle;rounded=0;orthogonalLoop=1;jettySize=auto;html=1;exitX=0.5;exitY=1;exitDx=0;exitDy=0;" edge="1" parent="1" source="yw08T7XUyzVqVWOrV2RB-42" target="yw08T7XUyzVqVWOrV2RB-36">
          <mxGeometry relative="1" as="geometry">
            <Array as="points">
              <mxPoint x="-170" y="-940" />
              <mxPoint x="-305" y="-940" />
            </Array>
          </mxGeometry>
        </mxCell>
        <mxCell id="yw08T7XUyzVqVWOrV2RB-42" value="&lt;h1 style=&quot;caret-color: rgb(0, 0, 0); color: rgb(0, 0, 0); font-family: Helvetica; font-style: normal; font-variant-caps: normal; letter-spacing: normal; orphans: auto; text-align: center; text-indent: 0px; text-transform: none; white-space: normal; widows: auto; word-spacing: 0px; -webkit-text-stroke-width: 0px; text-decoration: none; margin: 0px 0px 0.7em; padding: 0px; border: 0px; font-stretch: inherit; line-height: 16px; font-size-adjust: inherit; font-kerning: inherit; font-variant-alternates: inherit; font-variant-ligatures: inherit; font-variant-numeric: inherit; font-variant-east-asian: inherit; font-variant-position: inherit; font-feature-settings: inherit; font-optical-sizing: inherit; font-variation-settings: inherit; overflow-wrap: break-word; font-size: 16px;&quot;&gt;&lt;span style=&quot;font-family: inherit; font-size: inherit; font-style: inherit; font-variant-caps: inherit; font-weight: inherit; color: rgb(57, 58, 60); text-align: start;&quot;&gt;Ann (&lt;/span&gt;&lt;span style=&quot;font-weight: 400; caret-color: rgb(51, 51, 51); color: rgb(51, 51, 51); font-family: &amp;quot;Helvetica Neue&amp;quot;, Helvetica, Arial, sans-serif; font-size: 15px; letter-spacing: 0.3px; text-align: left; background-color: rgb(255, 255, 255);&quot;&gt;Madgwick&lt;/span&gt;&lt;span style=&quot;font-family: inherit; font-size: inherit; font-style: inherit; font-variant-caps: inherit; font-weight: inherit; color: rgb(57, 58, 60); text-align: start;&quot;&gt;)&lt;/span&gt;&lt;font style=&quot;font-size: 16px;&quot; color=&quot;#1a1a1a&quot; face=&quot;Helvetica&quot;&gt;&lt;span style=&quot;margin: 0px; padding: 0px; border: 0px; font-style: inherit; font-variant-caps: inherit; font-stretch: inherit; line-height: inherit; font-size-adjust: inherit; font-kerning: inherit; font-variant-alternates: inherit; font-variant-ligatures: inherit; font-variant-numeric: inherit; font-variant-east-asian: inherit; font-variant-position: inherit; font-feature-settings: inherit; font-optical-sizing: inherit; font-variation-settings: inherit; overflow-wrap: break-word;&quot;&gt;&lt;font style=&quot;font-size: 16px;&quot;&gt;&amp;nbsp;Burcher&lt;/font&gt;&lt;/span&gt;&amp;nbsp;&lt;/font&gt;&lt;/h1&gt;&lt;h1 style=&quot;font-style: normal; font-variant-caps: normal; letter-spacing: normal; orphans: auto; text-align: center; text-indent: 0px; text-transform: none; white-space: normal; widows: auto; word-spacing: 0px; -webkit-text-stroke-width: 0px; text-decoration: none; margin: 0px 0px 0.7em; padding: 0px; border: 0px; font-stretch: inherit; line-height: 1.4em; font-family: &amp;quot;Open Sans&amp;quot;, Helvetica, Arial, sans-serif; font-size-adjust: inherit; font-kerning: inherit; font-variant-alternates: inherit; font-variant-ligatures: inherit; font-variant-numeric: inherit; font-variant-east-asian: inherit; font-variant-position: inherit; font-feature-settings: inherit; font-optical-sizing: inherit; font-variation-settings: inherit; overflow-wrap: break-word; color: rgb(57, 58, 60); font-size: 16px;&quot;&gt;&lt;span&gt;&amp;nbsp;&lt;span class=&quot;Apple-converted-space&quot;&gt;&amp;nbsp;&lt;/span&gt;&lt;/span&gt;&lt;font style=&quot;font-size: 16px; font-weight: normal;&quot;&gt;&lt;span style=&quot;caret-color: rgb(51, 51, 51); color: rgb(51, 51, 51); font-family: &amp;quot;Helvetica Neue&amp;quot;, Helvetica, Arial, sans-serif; font-size: 15px; letter-spacing: 0.3px; text-align: left; background-color: rgb(255, 255, 255);&quot;&gt;1670&lt;/span&gt;&amp;nbsp;-&amp;nbsp;&lt;/font&gt;&lt;span style=&quot;caret-color: rgb(51, 51, 51); color: rgb(51, 51, 51); font-family: &amp;quot;Helvetica Neue&amp;quot;, Helvetica, Arial, sans-serif; font-size: 15px; letter-spacing: 0.3px; text-align: left; background-color: rgb(255, 255, 255); font-weight: normal;&quot;&gt;1714&lt;/span&gt;&lt;/h1&gt;&lt;div&gt;&lt;font style=&quot;font-size: 16px; font-weight: normal;&quot;&gt;&lt;div&gt;&lt;span style=&quot;caret-color: rgb(51, 51, 51); color: rgb(51, 51, 51); font-family: &amp;quot;Helvetica Neue&amp;quot;, Helvetica, Arial, sans-serif; font-size: 15px; letter-spacing: 0.3px; text-align: left; background-color: rgb(255, 255, 255);&quot;&gt;&lt;br&gt;&lt;/span&gt;&lt;/div&gt;&lt;/font&gt;&lt;/div&gt;&lt;div style=&quot;caret-color: rgb(0, 0, 0); color: rgb(0, 0, 0); font-family: Helvetica; font-style: normal; font-variant-caps: normal; font-weight: 400; letter-spacing: normal; orphans: auto; text-align: center; text-indent: 0px; text-transform: none; white-space: normal; widows: auto; word-spacing: 0px; -webkit-text-stroke-width: 0px; text-decoration: none; font-size: 16px;&quot;&gt;&lt;br&gt;&lt;/div&gt;" style="ellipse;whiteSpace=wrap;html=1;aspect=fixed;" vertex="1" parent="1">
          <mxGeometry x="-260" y="-1140" width="180" height="180" as="geometry" />
        </mxCell>
        <mxCell id="yw08T7XUyzVqVWOrV2RB-47" style="edgeStyle=orthogonalEdgeStyle;rounded=0;orthogonalLoop=1;jettySize=auto;html=1;exitX=0.5;exitY=1;exitDx=0;exitDy=0;" edge="1" parent="1" source="yw08T7XUyzVqVWOrV2RB-45" target="yw08T7XUyzVqVWOrV2RB-41">
          <mxGeometry relative="1" as="geometry" />
        </mxCell>
        <mxCell id="yw08T7XUyzVqVWOrV2RB-45" value="&lt;h1 style=&quot;margin: 0px 0px 0.7em; padding: 0px; border: 0px; font-stretch: inherit; line-height: 100%; font-size-adjust: inherit; font-kerning: inherit; font-variant-alternates: inherit; font-variant-ligatures: inherit; font-variant-numeric: inherit; font-variant-east-asian: inherit; font-variant-position: inherit; font-feature-settings: inherit; font-optical-sizing: inherit; font-variation-settings: inherit; overflow-wrap: break-word; font-size: 16px;&quot;&gt;&lt;font style=&quot;font-size: 16px;&quot; color=&quot;#1a1a1a&quot; face=&quot;Helvetica&quot;&gt;&lt;span style=&quot;margin: 0px; padding: 0px; border: 0px; font-style: inherit; font-variant-caps: inherit; font-stretch: inherit; line-height: inherit; font-size-adjust: inherit; font-kerning: inherit; font-variant-alternates: inherit; font-variant-ligatures: inherit; font-variant-numeric: inherit; font-variant-east-asian: inherit; font-variant-position: inherit; font-feature-settings: inherit; font-optical-sizing: inherit; font-variation-settings: inherit; overflow-wrap: break-word;&quot;&gt;&lt;font style=&quot;font-size: 16px;&quot;&gt;William Burcher&lt;/font&gt;&lt;/span&gt;&amp;nbsp;&lt;/font&gt;&lt;/h1&gt;&lt;h1 style=&quot;margin: 0px 0px 0.7em; padding: 0px; border: 0px; font-stretch: inherit; line-height: 100%; font-size-adjust: inherit; font-kerning: inherit; font-variant-alternates: inherit; font-variant-ligatures: inherit; font-variant-numeric: inherit; font-variant-east-asian: inherit; font-variant-position: inherit; font-feature-settings: inherit; font-optical-sizing: inherit; font-variation-settings: inherit; overflow-wrap: break-word; font-size: 16px;&quot;&gt;&lt;span style=&quot;caret-color: rgb(51, 51, 51); color: rgb(51, 51, 51); font-family: &amp;quot;Helvetica Neue&amp;quot;, Helvetica, Arial, sans-serif; font-size: 15px; letter-spacing: 0.3px; text-align: left; background-color: rgb(255, 255, 255); font-weight: normal;&quot;&gt;Jan 8 1642&lt;/span&gt;&lt;span style=&quot;font-weight: normal;&quot;&gt;&lt;font face=&quot;Helvetica&quot; style=&quot;font-size: 16px;&quot; color=&quot;#1a1a1a&quot;&gt;&amp;nbsp;-&amp;nbsp;&lt;/font&gt;&lt;/span&gt;&lt;span style=&quot;caret-color: rgb(51, 51, 51); color: rgb(51, 51, 51); font-family: &amp;quot;Helvetica Neue&amp;quot;, Helvetica, Arial, sans-serif; font-size: 15px; letter-spacing: 0.3px; text-align: left; background-color: rgb(255, 255, 255); font-weight: normal;&quot;&gt;Apr 1684&lt;/span&gt;&lt;/h1&gt;&lt;div&gt;&lt;div&gt;&lt;span style=&quot;font-size: 16px; color: rgb(26, 26, 26); background-color: rgb(255, 255, 255);&quot;&gt;Married&amp;nbsp;&lt;/span&gt;&lt;span style=&quot;caret-color: rgb(51, 51, 51); color: rgb(51, 51, 51); font-family: &amp;quot;Helvetica Neue&amp;quot;, Helvetica, Arial, sans-serif; font-size: 15px; letter-spacing: 0.3px; text-align: left; background-color: rgb(255, 255, 255);&quot;&gt;Jan 29 1664&lt;/span&gt;&lt;span style=&quot;font-size: 16px; color: rgb(26, 26, 26); background-color: rgb(255, 255, 255);&quot;&gt;&amp;nbsp;in&amp;nbsp;&lt;/span&gt;&lt;span style=&quot;caret-color: rgb(51, 51, 51); color: rgb(51, 51, 51); font-family: &amp;quot;Helvetica Neue&amp;quot;, Helvetica, Arial, sans-serif; font-size: 15px; letter-spacing: 0.3px; text-align: left; background-color: rgb(255, 255, 255);&quot;&gt;Boxgrove, West Sussex, England&lt;/span&gt;&lt;font style=&quot;font-size: 16px;&quot; face=&quot;Helvetica&quot; color=&quot;#1a1a1a&quot;&gt;&lt;br&gt;&lt;/font&gt;&lt;/div&gt;&lt;/div&gt;&lt;div&gt;&lt;span style=&quot;caret-color: rgb(51, 51, 51); color: rgb(51, 51, 51); font-family: &amp;quot;Helvetica Neue&amp;quot;, Helvetica, Arial, sans-serif; font-size: 15px; letter-spacing: 0.3px; text-align: left; background-color: rgb(255, 255, 255);&quot;&gt;&lt;br&gt;&lt;/span&gt;&lt;/div&gt;&lt;div style=&quot;font-size: 16px; line-height: 100%;&quot;&gt;&lt;span style=&quot;font-size: 23px; font-family: qMxfg6gYd-HVo0lsF2Li; font-weight: normal;&quot;&gt;&lt;font style=&quot;font-size: 16px;&quot;&gt;&lt;br&gt;&lt;/font&gt;&lt;/span&gt;&lt;/div&gt;" style="whiteSpace=wrap;html=1;aspect=fixed;" vertex="1" parent="1">
          <mxGeometry x="-629" y="-1375" width="170" height="170" as="geometry" />
        </mxCell>
        <mxCell id="yw08T7XUyzVqVWOrV2RB-49" style="edgeStyle=orthogonalEdgeStyle;rounded=0;orthogonalLoop=1;jettySize=auto;html=1;exitX=0.5;exitY=1;exitDx=0;exitDy=0;" edge="1" parent="1" source="yw08T7XUyzVqVWOrV2RB-46" target="yw08T7XUyzVqVWOrV2RB-41">
          <mxGeometry relative="1" as="geometry">
            <Array as="points">
              <mxPoint x="-289" y="-1170" />
              <mxPoint x="-425" y="-1170" />
            </Array>
          </mxGeometry>
        </mxCell>
        <mxCell id="yw08T7XUyzVqVWOrV2RB-46" value="&lt;h1 style=&quot;caret-color: rgb(0, 0, 0); color: rgb(0, 0, 0); font-family: Helvetica; font-style: normal; font-variant-caps: normal; letter-spacing: normal; orphans: auto; text-align: center; text-indent: 0px; text-transform: none; white-space: normal; widows: auto; word-spacing: 0px; -webkit-text-stroke-width: 0px; text-decoration: none; margin: 0px 0px 0.7em; padding: 0px; border: 0px; font-stretch: inherit; line-height: 16px; font-size-adjust: inherit; font-kerning: inherit; font-variant-alternates: inherit; font-variant-ligatures: inherit; font-variant-numeric: inherit; font-variant-east-asian: inherit; font-variant-position: inherit; font-feature-settings: inherit; font-optical-sizing: inherit; font-variation-settings: inherit; overflow-wrap: break-word; font-size: 16px;&quot;&gt;&lt;span style=&quot;font-family: inherit; font-size: inherit; font-style: inherit; font-variant-caps: inherit; font-weight: inherit; color: rgb(57, 58, 60); text-align: start;&quot;&gt;Ann (&lt;/span&gt;&lt;span style=&quot;font-weight: 400; caret-color: rgb(51, 51, 51); color: rgb(51, 51, 51); font-family: &amp;quot;Helvetica Neue&amp;quot;, Helvetica, Arial, sans-serif; font-size: 15px; letter-spacing: 0.3px; text-align: left; background-color: rgb(255, 255, 255);&quot;&gt;Sherrington&lt;/span&gt;&lt;span style=&quot;font-family: inherit; font-size: inherit; font-style: inherit; font-variant-caps: inherit; font-weight: inherit; color: rgb(57, 58, 60); text-align: start;&quot;&gt;)&lt;/span&gt;&lt;font style=&quot;font-size: 16px;&quot; color=&quot;#1a1a1a&quot; face=&quot;Helvetica&quot;&gt;&lt;span style=&quot;margin: 0px; padding: 0px; border: 0px; font-style: inherit; font-variant-caps: inherit; font-stretch: inherit; line-height: inherit; font-size-adjust: inherit; font-kerning: inherit; font-variant-alternates: inherit; font-variant-ligatures: inherit; font-variant-numeric: inherit; font-variant-east-asian: inherit; font-variant-position: inherit; font-feature-settings: inherit; font-optical-sizing: inherit; font-variation-settings: inherit; overflow-wrap: break-word;&quot;&gt;&lt;font style=&quot;font-size: 16px;&quot;&gt;&amp;nbsp;Burcher&lt;/font&gt;&lt;/span&gt;&amp;nbsp;&lt;/font&gt;&lt;/h1&gt;&lt;h1 style=&quot;font-style: normal; font-variant-caps: normal; letter-spacing: normal; orphans: auto; text-align: center; text-indent: 0px; text-transform: none; white-space: normal; widows: auto; word-spacing: 0px; -webkit-text-stroke-width: 0px; text-decoration: none; margin: 0px 0px 0.7em; padding: 0px; border: 0px; font-stretch: inherit; line-height: 1.4em; font-family: &amp;quot;Open Sans&amp;quot;, Helvetica, Arial, sans-serif; font-size-adjust: inherit; font-kerning: inherit; font-variant-alternates: inherit; font-variant-ligatures: inherit; font-variant-numeric: inherit; font-variant-east-asian: inherit; font-variant-position: inherit; font-feature-settings: inherit; font-optical-sizing: inherit; font-variation-settings: inherit; overflow-wrap: break-word; color: rgb(57, 58, 60); font-size: 16px;&quot;&gt;&lt;span&gt;&amp;nbsp;&lt;span class=&quot;Apple-converted-space&quot;&gt;&amp;nbsp;&lt;/span&gt;&lt;/span&gt;&lt;font style=&quot;font-size: 16px; font-weight: normal;&quot;&gt;&lt;span style=&quot;caret-color: rgb(51, 51, 51); color: rgb(51, 51, 51); font-family: &amp;quot;Helvetica Neue&amp;quot;, Helvetica, Arial, sans-serif; font-size: 15px; letter-spacing: 0.3px; text-align: left; background-color: rgb(255, 255, 255);&quot;&gt;Feb 6 1644&lt;/span&gt;&amp;nbsp;-&amp;nbsp;&lt;/font&gt;&lt;span style=&quot;caret-color: rgb(51, 51, 51); color: rgb(51, 51, 51); font-family: &amp;quot;Helvetica Neue&amp;quot;, Helvetica, Arial, sans-serif; font-size: 15px; letter-spacing: 0.3px; text-align: left; background-color: rgb(255, 255, 255); font-weight: normal;&quot;&gt;1747&lt;/span&gt;&lt;/h1&gt;&lt;div&gt;&lt;span style=&quot;font-size: 16px; color: rgb(26, 26, 26); background-color: rgb(255, 255, 255);&quot;&gt;Married&amp;nbsp;&lt;/span&gt;&lt;span style=&quot;caret-color: rgb(51, 51, 51); color: rgb(51, 51, 51); font-family: &amp;quot;Helvetica Neue&amp;quot;, Helvetica, Arial, sans-serif; font-size: 15px; letter-spacing: 0.3px; text-align: left; background-color: rgb(255, 255, 255);&quot;&gt;Jan 29 1664&lt;/span&gt;&lt;span style=&quot;font-size: 16px; color: rgb(26, 26, 26); background-color: rgb(255, 255, 255);&quot;&gt;&amp;nbsp;in&amp;nbsp;&lt;/span&gt;&lt;span style=&quot;caret-color: rgb(51, 51, 51); color: rgb(51, 51, 51); font-family: &amp;quot;Helvetica Neue&amp;quot;, Helvetica, Arial, sans-serif; font-size: 15px; letter-spacing: 0.3px; text-align: left; background-color: rgb(255, 255, 255);&quot;&gt;Boxgrove, West Sussex, England&lt;/span&gt;&lt;span style=&quot;caret-color: rgb(51, 51, 51); color: rgb(51, 51, 51); font-family: &amp;quot;Helvetica Neue&amp;quot;, Helvetica, Arial, sans-serif; font-size: 15px; letter-spacing: 0.3px; text-align: left; background-color: rgb(255, 255, 255); font-weight: normal;&quot;&gt;&lt;br&gt;&lt;/span&gt;&lt;/div&gt;&lt;div&gt;&lt;font style=&quot;font-size: 16px; font-weight: normal;&quot;&gt;&lt;div&gt;&lt;span style=&quot;caret-color: rgb(51, 51, 51); color: rgb(51, 51, 51); font-family: &amp;quot;Helvetica Neue&amp;quot;, Helvetica, Arial, sans-serif; font-size: 15px; letter-spacing: 0.3px; text-align: left; background-color: rgb(255, 255, 255);&quot;&gt;&lt;br&gt;&lt;/span&gt;&lt;/div&gt;&lt;/font&gt;&lt;/div&gt;&lt;div style=&quot;caret-color: rgb(0, 0, 0); color: rgb(0, 0, 0); font-family: Helvetica; font-style: normal; font-variant-caps: normal; font-weight: 400; letter-spacing: normal; orphans: auto; text-align: center; text-indent: 0px; text-transform: none; white-space: normal; widows: auto; word-spacing: 0px; -webkit-text-stroke-width: 0px; text-decoration: none; font-size: 16px;&quot;&gt;&lt;br&gt;&lt;/div&gt;" style="ellipse;whiteSpace=wrap;html=1;aspect=fixed;" vertex="1" parent="1">
          <mxGeometry x="-379" y="-1380" width="180" height="180" as="geometry" />
        </mxCell>
        <mxCell id="yw08T7XUyzVqVWOrV2RB-56" style="edgeStyle=orthogonalEdgeStyle;rounded=0;orthogonalLoop=1;jettySize=auto;html=1;exitX=0.5;exitY=1;exitDx=0;exitDy=0;entryX=0.5;entryY=0;entryDx=0;entryDy=0;" edge="1" parent="1" source="yw08T7XUyzVqVWOrV2RB-54" target="yw08T7XUyzVqVWOrV2RB-45">
          <mxGeometry relative="1" as="geometry" />
        </mxCell>
        <mxCell id="yw08T7XUyzVqVWOrV2RB-54" value="&lt;h1 style=&quot;margin: 0px 0px 0.7em; padding: 0px; border: 0px; font-stretch: inherit; line-height: 100%; font-size-adjust: inherit; font-kerning: inherit; font-variant-alternates: inherit; font-variant-ligatures: inherit; font-variant-numeric: inherit; font-variant-east-asian: inherit; font-variant-position: inherit; font-feature-settings: inherit; font-optical-sizing: inherit; font-variation-settings: inherit; overflow-wrap: break-word; font-size: 16px;&quot;&gt;&lt;font style=&quot;font-size: 16px;&quot; color=&quot;#1a1a1a&quot; face=&quot;Helvetica&quot;&gt;&lt;span style=&quot;margin: 0px; padding: 0px; border: 0px; font-style: inherit; font-variant-caps: inherit; font-stretch: inherit; line-height: inherit; font-size-adjust: inherit; font-kerning: inherit; font-variant-alternates: inherit; font-variant-ligatures: inherit; font-variant-numeric: inherit; font-variant-east-asian: inherit; font-variant-position: inherit; font-feature-settings: inherit; font-optical-sizing: inherit; font-variation-settings: inherit; overflow-wrap: break-word;&quot;&gt;&lt;font style=&quot;font-size: 16px;&quot;&gt;&lt;br&gt;&lt;/font&gt;&lt;/span&gt;&lt;/font&gt;&lt;/h1&gt;&lt;h1 style=&quot;margin: 0px 0px 0.7em; padding: 0px; border: 0px; font-stretch: inherit; line-height: 100%; font-size-adjust: inherit; font-kerning: inherit; font-variant-alternates: inherit; font-variant-ligatures: inherit; font-variant-numeric: inherit; font-variant-east-asian: inherit; font-variant-position: inherit; font-feature-settings: inherit; font-optical-sizing: inherit; font-variation-settings: inherit; overflow-wrap: break-word; font-size: 16px;&quot;&gt;&lt;font style=&quot;font-size: 16px;&quot; color=&quot;#1a1a1a&quot; face=&quot;Helvetica&quot;&gt;&lt;span style=&quot;margin: 0px; padding: 0px; border: 0px; font-style: inherit; font-variant-caps: inherit; font-stretch: inherit; line-height: inherit; font-size-adjust: inherit; font-kerning: inherit; font-variant-alternates: inherit; font-variant-ligatures: inherit; font-variant-numeric: inherit; font-variant-east-asian: inherit; font-variant-position: inherit; font-feature-settings: inherit; font-optical-sizing: inherit; font-variation-settings: inherit; overflow-wrap: break-word;&quot;&gt;&lt;font style=&quot;font-size: 16px;&quot;&gt;William Burcher&lt;/font&gt;&lt;/span&gt;&amp;nbsp;&lt;/font&gt;&lt;/h1&gt;&lt;h1 style=&quot;margin: 0px 0px 0.7em; padding: 0px; border: 0px; font-stretch: inherit; line-height: 100%; font-size-adjust: inherit; font-kerning: inherit; font-variant-alternates: inherit; font-variant-ligatures: inherit; font-variant-numeric: inherit; font-variant-east-asian: inherit; font-variant-position: inherit; font-feature-settings: inherit; font-optical-sizing: inherit; font-variation-settings: inherit; overflow-wrap: break-word;&quot;&gt;&lt;span style=&quot;font-weight: normal;&quot;&gt;&lt;font style=&quot;caret-color: rgb(51, 51, 51); font-size: 15px; letter-spacing: 0.3px; background-color: rgb(255, 255, 255);&quot; face=&quot;Helvetica Neue, Helvetica, Arial, sans-serif&quot; color=&quot;#333333&quot;&gt;1620&amp;nbsp;&lt;/font&gt;&lt;font face=&quot;Helvetica&quot; style=&quot;font-size: 16px;&quot; color=&quot;#1a1a1a&quot;&gt;-&amp;nbsp;&lt;/font&gt;&lt;/span&gt;&lt;span style=&quot;font-size: 15px; caret-color: rgb(51, 51, 51); color: rgb(51, 51, 51); font-family: &amp;quot;Helvetica Neue&amp;quot;, Helvetica, Arial, sans-serif; letter-spacing: 0.3px; background-color: rgb(255, 255, 255); font-weight: normal;&quot;&gt;Apr 1729&lt;/span&gt;&lt;/h1&gt;&lt;div&gt;&lt;div&gt;&lt;span style=&quot;font-size: 16px; color: rgb(26, 26, 26); background-color: rgb(255, 255, 255);&quot;&gt;Married&amp;nbsp;&lt;/span&gt;&lt;span style=&quot;caret-color: rgb(51, 51, 51); color: rgb(51, 51, 51); font-family: &amp;quot;Helvetica Neue&amp;quot;, Helvetica, Arial, sans-serif; font-size: 15px; letter-spacing: 0.3px; background-color: rgb(255, 255, 255);&quot;&gt;Oct 13 1688&lt;/span&gt;&lt;span style=&quot;font-size: 16px; color: rgb(26, 26, 26); background-color: rgb(255, 255, 255);&quot;&gt;&amp;nbsp;in&amp;nbsp;&lt;/span&gt;&lt;span style=&quot;caret-color: rgb(51, 51, 51); color: rgb(51, 51, 51); font-family: &amp;quot;Helvetica Neue&amp;quot;, Helvetica, Arial, sans-serif; font-size: 15px; letter-spacing: 0.3px; background-color: rgb(255, 255, 255);&quot;&gt;Saint Martin, Chichester, Sussex, England&lt;/span&gt;&lt;font style=&quot;font-size: 16px;&quot; face=&quot;Helvetica&quot; color=&quot;#1a1a1a&quot;&gt;&lt;br&gt;&lt;/font&gt;&lt;/div&gt;&lt;/div&gt;&lt;div&gt;&lt;span style=&quot;caret-color: rgb(51, 51, 51); color: rgb(51, 51, 51); font-family: &amp;quot;Helvetica Neue&amp;quot;, Helvetica, Arial, sans-serif; font-size: 15px; letter-spacing: 0.3px; background-color: rgb(255, 255, 255);&quot;&gt;&lt;br&gt;&lt;/span&gt;&lt;/div&gt;&lt;div style=&quot;font-size: 16px; line-height: 100%;&quot;&gt;&lt;span style=&quot;font-size: 23px; font-family: qMxfg6gYd-HVo0lsF2Li; font-weight: normal;&quot;&gt;&lt;font style=&quot;font-size: 16px;&quot;&gt;&lt;br&gt;&lt;/font&gt;&lt;/span&gt;&lt;/div&gt;" style="whiteSpace=wrap;html=1;aspect=fixed;" vertex="1" parent="1">
          <mxGeometry x="-759" y="-1615" width="170" height="170" as="geometry" />
        </mxCell>
        <mxCell id="yw08T7XUyzVqVWOrV2RB-57" style="edgeStyle=orthogonalEdgeStyle;rounded=0;orthogonalLoop=1;jettySize=auto;html=1;exitX=0.5;exitY=1;exitDx=0;exitDy=0;" edge="1" parent="1" source="yw08T7XUyzVqVWOrV2RB-55" target="yw08T7XUyzVqVWOrV2RB-45">
          <mxGeometry relative="1" as="geometry">
            <Array as="points">
              <mxPoint x="-419" y="-1410" />
              <mxPoint x="-544" y="-1410" />
            </Array>
          </mxGeometry>
        </mxCell>
        <mxCell id="yw08T7XUyzVqVWOrV2RB-55" value="&lt;h1 style=&quot;caret-color: rgb(0, 0, 0); color: rgb(0, 0, 0); font-family: Helvetica; font-style: normal; font-variant-caps: normal; letter-spacing: normal; orphans: auto; text-align: center; text-indent: 0px; text-transform: none; white-space: normal; widows: auto; word-spacing: 0px; -webkit-text-stroke-width: 0px; text-decoration: none; margin: 0px 0px 0.7em; padding: 0px; border: 0px; font-stretch: inherit; line-height: 16px; font-size-adjust: inherit; font-kerning: inherit; font-variant-alternates: inherit; font-variant-ligatures: inherit; font-variant-numeric: inherit; font-variant-east-asian: inherit; font-variant-position: inherit; font-feature-settings: inherit; font-optical-sizing: inherit; font-variation-settings: inherit; overflow-wrap: break-word; font-size: 16px;&quot;&gt;&lt;span style=&quot;font-family: inherit; font-size: inherit; font-style: inherit; font-variant-caps: inherit; font-weight: inherit; color: rgb(57, 58, 60); text-align: start;&quot;&gt;Joane (&lt;/span&gt;&lt;span style=&quot;font-weight: 400; caret-color: rgb(51, 51, 51); color: rgb(51, 51, 51); font-family: &amp;quot;Helvetica Neue&amp;quot;, Helvetica, Arial, sans-serif; font-size: 15px; letter-spacing: 0.3px; text-align: left; background-color: rgb(255, 255, 255);&quot;&gt;Holland&lt;/span&gt;&lt;span style=&quot;font-family: inherit; font-size: inherit; font-style: inherit; font-variant-caps: inherit; font-weight: inherit; color: rgb(57, 58, 60); text-align: start;&quot;&gt;)&lt;/span&gt;&lt;font style=&quot;font-size: 16px;&quot; color=&quot;#1a1a1a&quot; face=&quot;Helvetica&quot;&gt;&lt;span style=&quot;margin: 0px; padding: 0px; border: 0px; font-style: inherit; font-variant-caps: inherit; font-stretch: inherit; line-height: inherit; font-size-adjust: inherit; font-kerning: inherit; font-variant-alternates: inherit; font-variant-ligatures: inherit; font-variant-numeric: inherit; font-variant-east-asian: inherit; font-variant-position: inherit; font-feature-settings: inherit; font-optical-sizing: inherit; font-variation-settings: inherit; overflow-wrap: break-word;&quot;&gt;&lt;font style=&quot;font-size: 16px;&quot;&gt;&amp;nbsp;Burcher&lt;/font&gt;&lt;/span&gt;&amp;nbsp;&lt;/font&gt;&lt;/h1&gt;&lt;h1 style=&quot;font-style: normal; font-variant-caps: normal; letter-spacing: normal; orphans: auto; text-align: center; text-indent: 0px; text-transform: none; white-space: normal; widows: auto; word-spacing: 0px; -webkit-text-stroke-width: 0px; text-decoration: none; margin: 0px 0px 0.7em; padding: 0px; border: 0px; font-stretch: inherit; line-height: 1.4em; font-family: &amp;quot;Open Sans&amp;quot;, Helvetica, Arial, sans-serif; font-size-adjust: inherit; font-kerning: inherit; font-variant-alternates: inherit; font-variant-ligatures: inherit; font-variant-numeric: inherit; font-variant-east-asian: inherit; font-variant-position: inherit; font-feature-settings: inherit; font-optical-sizing: inherit; font-variation-settings: inherit; overflow-wrap: break-word; color: rgb(57, 58, 60); font-size: 16px;&quot;&gt;&lt;span&gt;&amp;nbsp;&lt;span class=&quot;Apple-converted-space&quot;&gt;&amp;nbsp;&lt;/span&gt;&lt;/span&gt;&lt;font style=&quot;font-size: 16px; font-weight: normal;&quot;&gt;&lt;span style=&quot;caret-color: rgb(51, 51, 51); color: rgb(51, 51, 51); font-family: &amp;quot;Helvetica Neue&amp;quot;, Helvetica, Arial, sans-serif; font-size: 15px; letter-spacing: 0.3px; text-align: left; background-color: rgb(255, 255, 255);&quot;&gt;1620&lt;/span&gt;&amp;nbsp;-&lt;/font&gt;&lt;/h1&gt;&lt;div&gt;&lt;div&gt;&lt;span style=&quot;font-size: 16px; color: rgb(26, 26, 26); background-color: rgb(255, 255, 255);&quot;&gt;Married&amp;nbsp;&lt;/span&gt;&lt;span style=&quot;caret-color: rgb(51, 51, 51); color: rgb(51, 51, 51); font-family: &amp;quot;Helvetica Neue&amp;quot;, Helvetica, Arial, sans-serif; font-size: 15px; letter-spacing: 0.3px; background-color: rgb(255, 255, 255);&quot;&gt;Oct 13 1688&lt;/span&gt;&lt;span style=&quot;font-size: 16px; color: rgb(26, 26, 26); background-color: rgb(255, 255, 255);&quot;&gt;&amp;nbsp;in&amp;nbsp;&lt;/span&gt;&lt;span style=&quot;caret-color: rgb(51, 51, 51); color: rgb(51, 51, 51); font-family: &amp;quot;Helvetica Neue&amp;quot;, Helvetica, Arial, sans-serif; font-size: 15px; letter-spacing: 0.3px; background-color: rgb(255, 255, 255);&quot;&gt;Saint Martin, Chichester, Sussex, England&lt;/span&gt;&lt;/div&gt;&lt;/div&gt;&lt;div style=&quot;caret-color: rgb(0, 0, 0); color: rgb(0, 0, 0); font-family: Helvetica; font-style: normal; font-variant-caps: normal; font-weight: 400; letter-spacing: normal; orphans: auto; text-align: center; text-indent: 0px; text-transform: none; white-space: normal; widows: auto; word-spacing: 0px; -webkit-text-stroke-width: 0px; text-decoration: none; font-size: 16px;&quot;&gt;&lt;br&gt;&lt;/div&gt;" style="ellipse;whiteSpace=wrap;html=1;aspect=fixed;" vertex="1" parent="1">
          <mxGeometry x="-509" y="-1620" width="180" height="180" as="geometry" />
        </mxCell>
        <mxCell id="yw08T7XUyzVqVWOrV2RB-60" style="edgeStyle=orthogonalEdgeStyle;rounded=0;orthogonalLoop=1;jettySize=auto;html=1;exitX=0.5;exitY=1;exitDx=0;exitDy=0;entryX=0.5;entryY=0;entryDx=0;entryDy=0;" edge="1" parent="1" source="yw08T7XUyzVqVWOrV2RB-58" target="yw08T7XUyzVqVWOrV2RB-54">
          <mxGeometry relative="1" as="geometry" />
        </mxCell>
        <mxCell id="yw08T7XUyzVqVWOrV2RB-58" value="&lt;h1 style=&quot;margin: 0px 0px 0.7em; padding: 0px; border: 0px; font-stretch: inherit; line-height: 100%; font-size-adjust: inherit; font-kerning: inherit; font-variant-alternates: inherit; font-variant-ligatures: inherit; font-variant-numeric: inherit; font-variant-east-asian: inherit; font-variant-position: inherit; font-feature-settings: inherit; font-optical-sizing: inherit; font-variation-settings: inherit; overflow-wrap: break-word; font-size: 16px;&quot;&gt;&lt;font style=&quot;font-size: 16px;&quot; color=&quot;#1a1a1a&quot; face=&quot;Helvetica&quot;&gt;&lt;span style=&quot;margin: 0px; padding: 0px; border: 0px; font-style: inherit; font-variant-caps: inherit; font-stretch: inherit; line-height: inherit; font-size-adjust: inherit; font-kerning: inherit; font-variant-alternates: inherit; font-variant-ligatures: inherit; font-variant-numeric: inherit; font-variant-east-asian: inherit; font-variant-position: inherit; font-feature-settings: inherit; font-optical-sizing: inherit; font-variation-settings: inherit; overflow-wrap: break-word;&quot;&gt;&lt;font style=&quot;font-size: 16px;&quot;&gt;&lt;br&gt;&lt;/font&gt;&lt;/span&gt;&lt;/font&gt;&lt;/h1&gt;&lt;h1 style=&quot;margin: 0px 0px 0.7em; padding: 0px; border: 0px; font-stretch: inherit; line-height: 100%; font-size-adjust: inherit; font-kerning: inherit; font-variant-alternates: inherit; font-variant-ligatures: inherit; font-variant-numeric: inherit; font-variant-east-asian: inherit; font-variant-position: inherit; font-feature-settings: inherit; font-optical-sizing: inherit; font-variation-settings: inherit; overflow-wrap: break-word; font-size: 16px;&quot;&gt;&lt;font style=&quot;font-size: 16px;&quot; color=&quot;#1a1a1a&quot; face=&quot;Helvetica&quot;&gt;&lt;span style=&quot;margin: 0px; padding: 0px; border: 0px; font-style: inherit; font-variant-caps: inherit; font-stretch: inherit; line-height: inherit; font-size-adjust: inherit; font-kerning: inherit; font-variant-alternates: inherit; font-variant-ligatures: inherit; font-variant-numeric: inherit; font-variant-east-asian: inherit; font-variant-position: inherit; font-feature-settings: inherit; font-optical-sizing: inherit; font-variation-settings: inherit; overflow-wrap: break-word;&quot;&gt;&lt;font style=&quot;font-size: 16px;&quot;&gt;John Burcher&lt;/font&gt;&lt;/span&gt;&amp;nbsp;&lt;/font&gt;&lt;/h1&gt;&lt;h1 style=&quot;margin: 0px 0px 0.7em; padding: 0px; border: 0px; font-stretch: inherit; line-height: 100%; font-size-adjust: inherit; font-kerning: inherit; font-variant-alternates: inherit; font-variant-ligatures: inherit; font-variant-numeric: inherit; font-variant-east-asian: inherit; font-variant-position: inherit; font-feature-settings: inherit; font-optical-sizing: inherit; font-variation-settings: inherit; overflow-wrap: break-word;&quot;&gt;&lt;span style=&quot;caret-color: rgb(51, 51, 51); color: rgb(51, 51, 51); font-family: &amp;quot;Helvetica Neue&amp;quot;, Helvetica, Arial, sans-serif; font-size: 15px; letter-spacing: 0.3px; text-align: left; background-color: rgb(255, 255, 255); font-weight: normal;&quot;&gt;1588&lt;/span&gt;&lt;span style=&quot;font-weight: normal;&quot;&gt;&lt;font style=&quot;caret-color: rgb(51, 51, 51); font-size: 15px; letter-spacing: 0.3px; background-color: rgb(255, 255, 255);&quot; face=&quot;Helvetica Neue, Helvetica, Arial, sans-serif&quot; color=&quot;#333333&quot;&gt;&amp;nbsp;&lt;/font&gt;&lt;font face=&quot;Helvetica&quot; style=&quot;font-size: 16px;&quot; color=&quot;#1a1a1a&quot;&gt;-&amp;nbsp;&lt;/font&gt;&lt;/span&gt;&lt;span style=&quot;caret-color: rgb(51, 51, 51); color: rgb(51, 51, 51); font-family: &amp;quot;Helvetica Neue&amp;quot;, Helvetica, Arial, sans-serif; font-size: 15px; letter-spacing: 0.3px; text-align: left; background-color: rgb(255, 255, 255); font-weight: normal;&quot;&gt;Oct 1680&lt;/span&gt;&lt;/h1&gt;&lt;div&gt;&lt;div&gt;&lt;span style=&quot;font-size: 16px; color: rgb(26, 26, 26); background-color: rgb(255, 255, 255);&quot;&gt;Married&amp;nbsp;&lt;/span&gt;&lt;span style=&quot;caret-color: rgb(51, 51, 51); color: rgb(51, 51, 51); font-family: &amp;quot;Helvetica Neue&amp;quot;, Helvetica, Arial, sans-serif; font-size: 15px; letter-spacing: 0.3px; text-align: left; background-color: rgb(255, 255, 255);&quot;&gt;Nov 9 1629&lt;/span&gt;&lt;span style=&quot;font-size: 16px; color: rgb(26, 26, 26); background-color: rgb(255, 255, 255);&quot;&gt;&amp;nbsp;in&amp;nbsp;&lt;/span&gt;&lt;span style=&quot;caret-color: rgb(51, 51, 51); color: rgb(51, 51, 51); font-family: &amp;quot;Helvetica Neue&amp;quot;, Helvetica, Arial, sans-serif; font-size: 15px; letter-spacing: 0.3px; text-align: left; background-color: rgb(255, 255, 255);&quot;&gt;Frittenden, Kent, England&lt;/span&gt;&lt;font style=&quot;font-size: 16px;&quot; face=&quot;Helvetica&quot; color=&quot;#1a1a1a&quot;&gt;&lt;br&gt;&lt;/font&gt;&lt;/div&gt;&lt;/div&gt;&lt;div&gt;&lt;span style=&quot;caret-color: rgb(51, 51, 51); color: rgb(51, 51, 51); font-family: &amp;quot;Helvetica Neue&amp;quot;, Helvetica, Arial, sans-serif; font-size: 15px; letter-spacing: 0.3px; background-color: rgb(255, 255, 255);&quot;&gt;&lt;br&gt;&lt;/span&gt;&lt;/div&gt;&lt;div style=&quot;font-size: 16px; line-height: 100%;&quot;&gt;&lt;span style=&quot;font-size: 23px; font-family: qMxfg6gYd-HVo0lsF2Li; font-weight: normal;&quot;&gt;&lt;font style=&quot;font-size: 16px;&quot;&gt;&lt;br&gt;&lt;/font&gt;&lt;/span&gt;&lt;/div&gt;" style="whiteSpace=wrap;html=1;aspect=fixed;" vertex="1" parent="1">
          <mxGeometry x="-880" y="-1855" width="170" height="170" as="geometry" />
        </mxCell>
        <mxCell id="yw08T7XUyzVqVWOrV2RB-61" style="edgeStyle=orthogonalEdgeStyle;rounded=0;orthogonalLoop=1;jettySize=auto;html=1;exitX=0.5;exitY=1;exitDx=0;exitDy=0;entryX=0.5;entryY=0;entryDx=0;entryDy=0;" edge="1" parent="1" source="yw08T7XUyzVqVWOrV2RB-59" target="yw08T7XUyzVqVWOrV2RB-54">
          <mxGeometry relative="1" as="geometry">
            <Array as="points">
              <mxPoint x="-540" y="-1650" />
              <mxPoint x="-674" y="-1650" />
            </Array>
          </mxGeometry>
        </mxCell>
        <mxCell id="yw08T7XUyzVqVWOrV2RB-59" value="&lt;h1 style=&quot;caret-color: rgb(0, 0, 0); color: rgb(0, 0, 0); font-family: Helvetica; font-style: normal; font-variant-caps: normal; letter-spacing: normal; orphans: auto; text-align: center; text-indent: 0px; text-transform: none; white-space: normal; widows: auto; word-spacing: 0px; -webkit-text-stroke-width: 0px; text-decoration: none; margin: 0px 0px 0.7em; padding: 0px; border: 0px; font-stretch: inherit; line-height: 16px; font-size-adjust: inherit; font-kerning: inherit; font-variant-alternates: inherit; font-variant-ligatures: inherit; font-variant-numeric: inherit; font-variant-east-asian: inherit; font-variant-position: inherit; font-feature-settings: inherit; font-optical-sizing: inherit; font-variation-settings: inherit; overflow-wrap: break-word; font-size: 16px;&quot;&gt;&lt;span style=&quot;font-family: inherit; font-size: inherit; font-style: inherit; font-variant-caps: inherit; font-weight: inherit; color: rgb(57, 58, 60); text-align: start;&quot;&gt;Elizabeth (&lt;/span&gt;&lt;span style=&quot;font-weight: 400; caret-color: rgb(51, 51, 51); color: rgb(51, 51, 51); font-family: &amp;quot;Helvetica Neue&amp;quot;, Helvetica, Arial, sans-serif; font-size: 15px; letter-spacing: 0.3px; text-align: left; background-color: rgb(255, 255, 255);&quot;&gt;Paynie&lt;/span&gt;&lt;span style=&quot;font-family: inherit; font-size: inherit; font-style: inherit; font-variant-caps: inherit; font-weight: inherit; color: rgb(57, 58, 60); text-align: start;&quot;&gt;)&lt;/span&gt;&lt;font style=&quot;font-size: 16px;&quot; color=&quot;#1a1a1a&quot; face=&quot;Helvetica&quot;&gt;&lt;span style=&quot;margin: 0px; padding: 0px; border: 0px; font-style: inherit; font-variant-caps: inherit; font-stretch: inherit; line-height: inherit; font-size-adjust: inherit; font-kerning: inherit; font-variant-alternates: inherit; font-variant-ligatures: inherit; font-variant-numeric: inherit; font-variant-east-asian: inherit; font-variant-position: inherit; font-feature-settings: inherit; font-optical-sizing: inherit; font-variation-settings: inherit; overflow-wrap: break-word;&quot;&gt;&lt;font style=&quot;font-size: 16px;&quot;&gt;&amp;nbsp;Burcher&lt;/font&gt;&lt;/span&gt;&amp;nbsp;&lt;/font&gt;&lt;/h1&gt;&lt;h1 style=&quot;font-style: normal; font-variant-caps: normal; letter-spacing: normal; orphans: auto; text-align: center; text-indent: 0px; text-transform: none; white-space: normal; widows: auto; word-spacing: 0px; -webkit-text-stroke-width: 0px; text-decoration: none; margin: 0px 0px 0.7em; padding: 0px; border: 0px; font-stretch: inherit; line-height: 1.4em; font-family: &amp;quot;Open Sans&amp;quot;, Helvetica, Arial, sans-serif; font-size-adjust: inherit; font-kerning: inherit; font-variant-alternates: inherit; font-variant-ligatures: inherit; font-variant-numeric: inherit; font-variant-east-asian: inherit; font-variant-position: inherit; font-feature-settings: inherit; font-optical-sizing: inherit; font-variation-settings: inherit; overflow-wrap: break-word; color: rgb(57, 58, 60); font-size: 16px;&quot;&gt;&lt;span&gt;&amp;nbsp;&lt;/span&gt;&lt;font style=&quot;font-size: 16px; font-weight: normal;&quot;&gt;&amp;nbsp;-&amp;nbsp;&lt;/font&gt;&lt;span style=&quot;caret-color: rgb(51, 51, 51); color: rgb(51, 51, 51); font-family: &amp;quot;Helvetica Neue&amp;quot;, Helvetica, Arial, sans-serif; font-size: 15px; letter-spacing: 0.3px; text-align: left; background-color: rgb(255, 255, 255); font-weight: normal;&quot;&gt;1680&lt;/span&gt;&lt;/h1&gt;&lt;div&gt;&lt;div&gt;&lt;span style=&quot;font-size: 16px; color: rgb(26, 26, 26); background-color: rgb(255, 255, 255);&quot;&gt;Married&amp;nbsp;&lt;/span&gt;&lt;span style=&quot;caret-color: rgb(51, 51, 51); color: rgb(51, 51, 51); font-family: &amp;quot;Helvetica Neue&amp;quot;, Helvetica, Arial, sans-serif; font-size: 15px; letter-spacing: 0.3px; text-align: left; background-color: rgb(255, 255, 255);&quot;&gt;Nov 9 1629&lt;/span&gt;&lt;span style=&quot;font-size: 16px; color: rgb(26, 26, 26); background-color: rgb(255, 255, 255);&quot;&gt;&amp;nbsp;in&amp;nbsp;&lt;/span&gt;&lt;span style=&quot;caret-color: rgb(51, 51, 51); color: rgb(51, 51, 51); font-family: &amp;quot;Helvetica Neue&amp;quot;, Helvetica, Arial, sans-serif; font-size: 15px; letter-spacing: 0.3px; text-align: left; background-color: rgb(255, 255, 255);&quot;&gt;Frittenden, Kent, England&lt;/span&gt;&lt;br&gt;&lt;/div&gt;&lt;/div&gt;" style="ellipse;whiteSpace=wrap;html=1;aspect=fixed;" vertex="1" parent="1">
          <mxGeometry x="-630" y="-1860" width="180" height="180" as="geometry" />
        </mxCell>
        <mxCell id="yw08T7XUyzVqVWOrV2RB-64" style="edgeStyle=orthogonalEdgeStyle;rounded=0;orthogonalLoop=1;jettySize=auto;html=1;exitX=0.5;exitY=1;exitDx=0;exitDy=0;" edge="1" parent="1" source="yw08T7XUyzVqVWOrV2RB-62" target="yw08T7XUyzVqVWOrV2RB-58">
          <mxGeometry relative="1" as="geometry" />
        </mxCell>
        <mxCell id="yw08T7XUyzVqVWOrV2RB-62" value="&lt;h1 style=&quot;margin: 0px 0px 0.7em; padding: 0px; border: 0px; font-stretch: inherit; line-height: 100%; font-size-adjust: inherit; font-kerning: inherit; font-variant-alternates: inherit; font-variant-ligatures: inherit; font-variant-numeric: inherit; font-variant-east-asian: inherit; font-variant-position: inherit; font-feature-settings: inherit; font-optical-sizing: inherit; font-variation-settings: inherit; overflow-wrap: break-word; font-size: 16px;&quot;&gt;&lt;font style=&quot;font-size: 16px;&quot; color=&quot;#1a1a1a&quot; face=&quot;Helvetica&quot;&gt;&lt;span style=&quot;margin: 0px; padding: 0px; border: 0px; font-style: inherit; font-variant-caps: inherit; font-stretch: inherit; line-height: inherit; font-size-adjust: inherit; font-kerning: inherit; font-variant-alternates: inherit; font-variant-ligatures: inherit; font-variant-numeric: inherit; font-variant-east-asian: inherit; font-variant-position: inherit; font-feature-settings: inherit; font-optical-sizing: inherit; font-variation-settings: inherit; overflow-wrap: break-word;&quot;&gt;&lt;font style=&quot;font-size: 16px;&quot;&gt;&lt;br&gt;&lt;/font&gt;&lt;/span&gt;&lt;/font&gt;&lt;/h1&gt;&lt;h1 style=&quot;margin: 0px 0px 0.7em; padding: 0px; border: 0px; font-stretch: inherit; line-height: 100%; font-size-adjust: inherit; font-kerning: inherit; font-variant-alternates: inherit; font-variant-ligatures: inherit; font-variant-numeric: inherit; font-variant-east-asian: inherit; font-variant-position: inherit; font-feature-settings: inherit; font-optical-sizing: inherit; font-variation-settings: inherit; overflow-wrap: break-word; font-size: 16px;&quot;&gt;&lt;font style=&quot;font-size: 16px;&quot; color=&quot;#1a1a1a&quot; face=&quot;Helvetica&quot;&gt;&lt;span style=&quot;margin: 0px; padding: 0px; border: 0px; font-style: inherit; font-variant-caps: inherit; font-stretch: inherit; line-height: inherit; font-size-adjust: inherit; font-kerning: inherit; font-variant-alternates: inherit; font-variant-ligatures: inherit; font-variant-numeric: inherit; font-variant-east-asian: inherit; font-variant-position: inherit; font-feature-settings: inherit; font-optical-sizing: inherit; font-variation-settings: inherit; overflow-wrap: break-word;&quot;&gt;&lt;font style=&quot;font-size: 16px;&quot;&gt;Thomas Burcher&lt;/font&gt;&lt;/span&gt;&amp;nbsp;&lt;/font&gt;&lt;/h1&gt;&lt;h1 style=&quot;margin: 0px 0px 0.7em; padding: 0px; border: 0px; font-stretch: inherit; line-height: 100%; font-size-adjust: inherit; font-kerning: inherit; font-variant-alternates: inherit; font-variant-ligatures: inherit; font-variant-numeric: inherit; font-variant-east-asian: inherit; font-variant-position: inherit; font-feature-settings: inherit; font-optical-sizing: inherit; font-variation-settings: inherit; overflow-wrap: break-word;&quot;&gt;&lt;span style=&quot;caret-color: rgb(51, 51, 51); color: rgb(51, 51, 51); font-family: &amp;quot;Helvetica Neue&amp;quot;, Helvetica, Arial, sans-serif; font-size: 15px; letter-spacing: 0.3px; text-align: left; background-color: rgb(255, 255, 255); font-weight: normal;&quot;&gt;1550&lt;/span&gt;&lt;span style=&quot;font-weight: normal;&quot;&gt;&lt;font style=&quot;caret-color: rgb(51, 51, 51); font-size: 15px; letter-spacing: 0.3px; background-color: rgb(255, 255, 255);&quot; face=&quot;Helvetica Neue, Helvetica, Arial, sans-serif&quot; color=&quot;#333333&quot;&gt;&amp;nbsp;&lt;/font&gt;&lt;font face=&quot;Helvetica&quot; style=&quot;font-size: 16px;&quot; color=&quot;#1a1a1a&quot;&gt;-&lt;/font&gt;&lt;/span&gt;&lt;span style=&quot;caret-color: rgb(51, 51, 51); color: rgb(51, 51, 51); font-family: &amp;quot;Helvetica Neue&amp;quot;, Helvetica, Arial, sans-serif; font-size: 15px; letter-spacing: 0.3px; text-align: left; background-color: rgb(255, 255, 255); font-weight: normal;&quot;&gt;&amp;nbsp;1631&lt;/span&gt;&lt;/h1&gt;&lt;div&gt;&lt;div&gt;&lt;span style=&quot;font-size: 16px; color: rgb(26, 26, 26); background-color: rgb(255, 255, 255);&quot;&gt;Married&amp;nbsp;&lt;/span&gt;&lt;span style=&quot;caret-color: rgb(51, 51, 51); color: rgb(51, 51, 51); font-family: &amp;quot;Helvetica Neue&amp;quot;, Helvetica, Arial, sans-serif; font-size: 15px; letter-spacing: 0.3px; text-align: left; background-color: rgb(255, 255, 255);&quot;&gt;Apr 25 1581&lt;/span&gt;&lt;span style=&quot;font-size: 16px; color: rgb(26, 26, 26); background-color: rgb(255, 255, 255);&quot;&gt;&amp;nbsp;in&amp;nbsp;&lt;/span&gt;&lt;span style=&quot;caret-color: rgb(51, 51, 51); color: rgb(51, 51, 51); font-family: &amp;quot;Helvetica Neue&amp;quot;, Helvetica, Arial, sans-serif; font-size: 15px; letter-spacing: 0.3px; text-align: left; background-color: rgb(255, 255, 255);&quot;&gt;Ferring Sussex England&lt;/span&gt;&lt;/div&gt;&lt;/div&gt;&lt;div style=&quot;font-size: 16px; line-height: 100%;&quot;&gt;&lt;span style=&quot;font-size: 23px; font-family: qMxfg6gYd-HVo0lsF2Li; font-weight: normal;&quot;&gt;&lt;font style=&quot;font-size: 16px;&quot;&gt;&lt;br&gt;&lt;/font&gt;&lt;/span&gt;&lt;/div&gt;" style="whiteSpace=wrap;html=1;aspect=fixed;" vertex="1" parent="1">
          <mxGeometry x="-1010" y="-2085" width="170" height="170" as="geometry" />
        </mxCell>
        <mxCell id="yw08T7XUyzVqVWOrV2RB-65" style="edgeStyle=orthogonalEdgeStyle;rounded=0;orthogonalLoop=1;jettySize=auto;html=1;exitX=0.5;exitY=1;exitDx=0;exitDy=0;entryX=0.5;entryY=0;entryDx=0;entryDy=0;" edge="1" parent="1" source="yw08T7XUyzVqVWOrV2RB-63" target="yw08T7XUyzVqVWOrV2RB-58">
          <mxGeometry relative="1" as="geometry">
            <Array as="points">
              <mxPoint x="-670" y="-1882" />
              <mxPoint x="-795" y="-1882" />
            </Array>
          </mxGeometry>
        </mxCell>
        <mxCell id="yw08T7XUyzVqVWOrV2RB-63" value="&lt;h1 style=&quot;caret-color: rgb(0, 0, 0); color: rgb(0, 0, 0); font-family: Helvetica; font-style: normal; font-variant-caps: normal; letter-spacing: normal; orphans: auto; text-align: center; text-indent: 0px; text-transform: none; white-space: normal; widows: auto; word-spacing: 0px; -webkit-text-stroke-width: 0px; text-decoration: none; margin: 0px 0px 0.7em; padding: 0px; border: 0px; font-stretch: inherit; line-height: 16px; font-size-adjust: inherit; font-kerning: inherit; font-variant-alternates: inherit; font-variant-ligatures: inherit; font-variant-numeric: inherit; font-variant-east-asian: inherit; font-variant-position: inherit; font-feature-settings: inherit; font-optical-sizing: inherit; font-variation-settings: inherit; overflow-wrap: break-word; font-size: 16px;&quot;&gt;&lt;span style=&quot;font-family: inherit; font-size: inherit; font-style: inherit; font-variant-caps: inherit; font-weight: inherit; color: rgb(57, 58, 60); text-align: start;&quot;&gt;Joane (&lt;/span&gt;&lt;span style=&quot;font-weight: 400; caret-color: rgb(51, 51, 51); color: rgb(51, 51, 51); font-family: &amp;quot;Helvetica Neue&amp;quot;, Helvetica, Arial, sans-serif; font-size: 15px; letter-spacing: 0.3px; text-align: left; background-color: rgb(255, 255, 255);&quot;&gt;Sewall&lt;/span&gt;&lt;span style=&quot;font-family: inherit; font-size: inherit; font-style: inherit; font-variant-caps: inherit; font-weight: inherit; color: rgb(57, 58, 60); text-align: start;&quot;&gt;)&lt;/span&gt;&lt;font style=&quot;font-size: 16px;&quot; color=&quot;#1a1a1a&quot; face=&quot;Helvetica&quot;&gt;&lt;span style=&quot;margin: 0px; padding: 0px; border: 0px; font-style: inherit; font-variant-caps: inherit; font-stretch: inherit; line-height: inherit; font-size-adjust: inherit; font-kerning: inherit; font-variant-alternates: inherit; font-variant-ligatures: inherit; font-variant-numeric: inherit; font-variant-east-asian: inherit; font-variant-position: inherit; font-feature-settings: inherit; font-optical-sizing: inherit; font-variation-settings: inherit; overflow-wrap: break-word;&quot;&gt;&lt;font style=&quot;font-size: 16px;&quot;&gt;&amp;nbsp;Burcher&lt;/font&gt;&lt;/span&gt;&amp;nbsp;&lt;/font&gt;&lt;/h1&gt;&lt;h1 style=&quot;font-style: normal; font-variant-caps: normal; letter-spacing: normal; orphans: auto; text-align: center; text-indent: 0px; text-transform: none; white-space: normal; widows: auto; word-spacing: 0px; -webkit-text-stroke-width: 0px; text-decoration: none; margin: 0px 0px 0.7em; padding: 0px; border: 0px; font-stretch: inherit; line-height: 1.4em; font-family: &amp;quot;Open Sans&amp;quot;, Helvetica, Arial, sans-serif; font-size-adjust: inherit; font-kerning: inherit; font-variant-alternates: inherit; font-variant-ligatures: inherit; font-variant-numeric: inherit; font-variant-east-asian: inherit; font-variant-position: inherit; font-feature-settings: inherit; font-optical-sizing: inherit; font-variation-settings: inherit; overflow-wrap: break-word; color: rgb(57, 58, 60); font-size: 16px;&quot;&gt;&lt;span style=&quot;caret-color: rgb(51, 51, 51); color: rgb(51, 51, 51); font-family: &amp;quot;Helvetica Neue&amp;quot;, Helvetica, Arial, sans-serif; font-size: 15px; letter-spacing: 0.3px; text-align: left; background-color: rgb(255, 255, 255); font-weight: normal;&quot;&gt;1563&lt;/span&gt;&lt;span&gt;&amp;nbsp;&lt;/span&gt;&lt;font style=&quot;font-size: 16px; font-weight: normal;&quot;&gt;&amp;nbsp;-&amp;nbsp;&lt;/font&gt;&lt;span style=&quot;caret-color: rgb(51, 51, 51); color: rgb(51, 51, 51); font-family: &amp;quot;Helvetica Neue&amp;quot;, Helvetica, Arial, sans-serif; font-size: 15px; letter-spacing: 0.3px; text-align: left; background-color: rgb(255, 255, 255); font-weight: normal;&quot;&gt;1626&lt;/span&gt;&lt;/h1&gt;&lt;div&gt;&lt;div&gt;&lt;span style=&quot;font-size: 16px; color: rgb(26, 26, 26); background-color: rgb(255, 255, 255);&quot;&gt;Married&amp;nbsp;&lt;/span&gt;&lt;span style=&quot;caret-color: rgb(51, 51, 51); color: rgb(51, 51, 51); font-family: &amp;quot;Helvetica Neue&amp;quot;, Helvetica, Arial, sans-serif; font-size: 15px; letter-spacing: 0.3px; text-align: left; background-color: rgb(255, 255, 255);&quot;&gt;Apr 25 1581&lt;/span&gt;&lt;span style=&quot;font-size: 16px; color: rgb(26, 26, 26); background-color: rgb(255, 255, 255);&quot;&gt;&amp;nbsp;in&amp;nbsp;&lt;/span&gt;&lt;span style=&quot;caret-color: rgb(51, 51, 51); color: rgb(51, 51, 51); font-family: &amp;quot;Helvetica Neue&amp;quot;, Helvetica, Arial, sans-serif; font-size: 15px; letter-spacing: 0.3px; text-align: left; background-color: rgb(255, 255, 255);&quot;&gt;Ferring Sussex England&lt;/span&gt;&lt;br&gt;&lt;/div&gt;&lt;/div&gt;" style="ellipse;whiteSpace=wrap;html=1;aspect=fixed;" vertex="1" parent="1">
          <mxGeometry x="-760" y="-2090" width="180" height="180" as="geometry" />
        </mxCell>
      </root>
    </mxGraphModel>
  </diagram>
</mxfile>
